<svg xmlns="http://www.w3.org/2000/svg" xmlns:xlink="http://www.w3.org/1999/xlink" width="500" zoomAndPan="magnify" viewBox="0 0 375 374.999991" height="500" preserveAspectRatio="xMidYMid meet" version="1.0"><defs><clipPath id="d5d88455d2"><path d="M 194.027344 140.109375 L 314.066406 140.109375 L 314.066406 159.882812 L 194.027344 159.882812 Z M 194.027344 140.109375 " clip-rule="nonzero"/></clipPath><clipPath id="722676d8c9"><path d="M 314.066406 149.996094 L 194.097656 159.882812 L 194.097656 140.109375 Z M 314.066406 149.996094 " clip-rule="nonzero"/></clipPath><clipPath id="1bb6526872"><path d="M 196.894531 148.617188 L 375 148.617188 L 375 159.882812 L 196.894531 159.882812 Z M 196.894531 148.617188 " clip-rule="nonzero"/></clipPath><clipPath id="b46f7425a6"><path d="M 139 139 L 236 139 L 236 236 L 139 236 Z M 139 139 " clip-rule="nonzero"/></clipPath><clipPath id="ce69b67716"><path d="M 177.796875 120.734375 L 254.132812 177.707031 L 197.160156 254.039062 L 120.828125 197.070312 Z M 177.796875 120.734375 " clip-rule="nonzero"/></clipPath><clipPath id="52029ae944"><path d="M 177.796875 120.734375 L 254.132812 177.707031 L 197.160156 254.039062 L 120.828125 197.070312 Z M 177.796875 120.734375 " clip-rule="nonzero"/></clipPath><clipPath id="2a5c59175a"><path d="M 152 144 L 231 144 L 231 215 L 152 215 Z M 152 144 " clip-rule="nonzero"/></clipPath><clipPath id="65442992dd"><path d="M 177.796875 120.734375 L 254.132812 177.707031 L 197.160156 254.039062 L 120.828125 197.070312 Z M 177.796875 120.734375 " clip-rule="nonzero"/></clipPath><clipPath id="177b16143b"><path d="M 177.796875 120.734375 L 254.132812 177.707031 L 197.160156 254.039062 L 120.828125 197.070312 Z M 177.796875 120.734375 " clip-rule="nonzero"/></clipPath><clipPath id="b9a1efac26"><path d="M 160 173 L 208 173 L 208 216 L 160 216 Z M 160 173 " clip-rule="nonzero"/></clipPath><clipPath id="292b444344"><path d="M 177.796875 120.734375 L 254.132812 177.707031 L 197.160156 254.039062 L 120.828125 197.070312 Z M 177.796875 120.734375 " clip-rule="nonzero"/></clipPath><clipPath id="53b1c39408"><path d="M 177.796875 120.734375 L 254.132812 177.707031 L 197.160156 254.039062 L 120.828125 197.070312 Z M 177.796875 120.734375 " clip-rule="nonzero"/></clipPath><clipPath id="25406ac9fd"><path d="M 149 152 L 224 152 L 224 226 L 149 226 Z M 149 152 " clip-rule="nonzero"/></clipPath><clipPath id="bc2a24d9b1"><path d="M 177.796875 120.734375 L 254.132812 177.707031 L 197.160156 254.039062 L 120.828125 197.070312 Z M 177.796875 120.734375 " clip-rule="nonzero"/></clipPath><clipPath id="1eb72aeb0f"><path d="M 177.796875 120.734375 L 254.132812 177.707031 L 197.160156 254.039062 L 120.828125 197.070312 Z M 177.796875 120.734375 " clip-rule="nonzero"/></clipPath></defs><g clip-path="url(#d5d88455d2)"><g clip-path="url(#722676d8c9)"><path fill="#1e1411" d="M 314.066406 140.109375 L 314.066406 159.882812 L 194.105469 159.882812 L 194.105469 140.109375 Z M 314.066406 140.109375 " fill-opacity="1" fill-rule="nonzero"/></g></g><g clip-path="url(#1bb6526872)"><path fill="#ffffff" d="M 196.894531 148.617188 L 375.007812 148.617188 L 375.007812 159.882812 L 196.894531 159.882812 Z M 196.894531 148.617188 " fill-opacity="1" fill-rule="nonzero"/></g><g clip-path="url(#b46f7425a6)"><g clip-path="url(#ce69b67716)"><g clip-path="url(#52029ae944)"><path fill="#1e1411" d="M 216.027344 149.265625 C 194.945312 133.535156 164.996094 137.882812 149.265625 158.964844 C 133.53125 180.042969 137.886719 209.992188 158.964844 225.722656 C 180.042969 241.453125 209.988281 237.105469 225.722656 216.027344 C 241.453125 194.945312 237.105469 165 216.027344 149.265625 Z M 194.261719 214.089844 C 194.054688 214.164062 193.847656 214.238281 193.640625 214.3125 C 193.53125 214.347656 193.425781 214.382812 193.316406 214.417969 C 192.964844 214.53125 192.609375 214.640625 192.253906 214.742188 C 192.148438 214.769531 192.046875 214.800781 191.945312 214.832031 C 191.734375 214.886719 191.527344 214.941406 191.316406 214.992188 C 191.203125 215.019531 191.089844 215.046875 190.972656 215.074219 C 190.632812 215.152344 190.289062 215.222656 189.949219 215.289062 C 189.816406 215.3125 189.6875 215.339844 189.5625 215.359375 C 189.359375 215.390625 189.15625 215.429688 188.957031 215.457031 C 188.757812 215.484375 188.542969 215.511719 188.335938 215.539062 C 188.085938 215.570312 187.839844 215.597656 187.589844 215.621094 C 187.433594 215.636719 187.277344 215.648438 187.121094 215.660156 C 186.875 215.679688 186.632812 215.695312 186.390625 215.707031 C 186.167969 215.71875 185.945312 215.726562 185.722656 215.730469 C 185.550781 215.734375 185.375 215.738281 185.199219 215.738281 C 185 215.738281 184.796875 215.734375 184.59375 215.730469 C 184.371094 215.726562 184.148438 215.71875 183.925781 215.710938 C 183.703125 215.699219 183.480469 215.6875 183.261719 215.671875 C 183.109375 215.660156 182.957031 215.648438 182.804688 215.632812 C 182.496094 215.605469 182.191406 215.574219 181.882812 215.53125 C 181.757812 215.515625 181.632812 215.496094 181.507812 215.480469 C 181.265625 215.445312 181.027344 215.40625 180.785156 215.367188 C 180.664062 215.347656 180.539062 215.324219 180.414062 215.300781 C 180.097656 215.242188 179.777344 215.175781 179.457031 215.101562 C 179.339844 215.078125 179.226562 215.046875 179.113281 215.019531 C 178.835938 214.953125 178.558594 214.878906 178.28125 214.800781 C 178.207031 214.78125 178.128906 214.761719 178.054688 214.738281 C 177.722656 214.640625 177.390625 214.535156 177.0625 214.425781 C 176.960938 214.390625 176.859375 214.355469 176.761719 214.320312 C 176.425781 214.203125 176.09375 214.082031 175.761719 213.949219 C 175.710938 213.925781 175.660156 213.90625 175.609375 213.882812 C 175.308594 213.761719 175.007812 213.628906 174.710938 213.496094 C 174.628906 213.457031 174.546875 213.421875 174.464844 213.382812 C 174.136719 213.230469 173.808594 213.066406 173.484375 212.898438 C 173.417969 212.863281 173.351562 212.824219 173.28125 212.789062 C 172.988281 212.632812 172.695312 212.46875 172.402344 212.296875 C 172.351562 212.265625 172.296875 212.234375 172.246094 212.203125 C 171.921875 212.011719 171.601562 211.808594 171.289062 211.601562 C 171.214844 211.550781 171.144531 211.503906 171.074219 211.457031 C 170.75 211.238281 170.429688 211.015625 170.117188 210.78125 C 169.800781 210.546875 169.496094 210.300781 169.199219 210.058594 C 169.132812 210 169.066406 209.949219 169 209.890625 C 168.707031 209.648438 168.421875 209.402344 168.148438 209.148438 C 168.101562 209.105469 168.058594 209.0625 168.011719 209.019531 C 167.765625 208.789062 167.527344 208.554688 167.289062 208.316406 C 167.238281 208.265625 167.183594 208.210938 167.128906 208.15625 C 166.875 207.894531 166.625 207.625 166.386719 207.351562 C 166.324219 207.285156 166.265625 207.21875 166.210938 207.152344 C 165.996094 206.902344 165.785156 206.652344 165.578125 206.398438 C 165.546875 206.355469 165.507812 206.3125 165.472656 206.269531 C 165.253906 205.992188 165.042969 205.703125 164.832031 205.417969 C 164.773438 205.332031 164.710938 205.246094 164.648438 205.160156 C 164.449219 204.875 164.253906 204.589844 164.066406 204.296875 C 164.023438 204.230469 163.984375 204.164062 163.941406 204.097656 C 163.789062 203.855469 163.640625 203.609375 163.496094 203.363281 C 163.4375 203.257812 163.375 203.160156 163.320312 203.058594 C 163.15625 202.773438 163.003906 202.484375 162.851562 202.195312 C 162.796875 202.082031 162.742188 201.96875 162.6875 201.859375 C 162.578125 201.640625 162.472656 201.421875 162.371094 201.199219 C 162.320312 201.085938 162.265625 200.96875 162.214844 200.855469 C 162.089844 200.570312 161.972656 200.285156 161.855469 200 C 161.800781 199.855469 161.746094 199.714844 161.6875 199.570312 C 161.609375 199.363281 161.535156 199.152344 161.460938 198.941406 C 161.390625 198.734375 161.320312 198.523438 161.253906 198.3125 C 161.191406 198.121094 161.128906 197.925781 161.074219 197.730469 C 161.023438 197.5625 160.976562 197.398438 160.929688 197.230469 C 160.871094 197.011719 160.816406 196.792969 160.761719 196.574219 C 160.707031 196.339844 160.652344 196.105469 160.601562 195.871094 C 160.566406 195.714844 160.535156 195.5625 160.507812 195.40625 C 160.457031 195.164062 160.414062 194.921875 160.375 194.679688 C 160.339844 194.46875 160.304688 194.261719 160.273438 194.046875 C 160.246094 193.835938 160.222656 193.644531 160.195312 193.441406 C 160.183594 193.3125 160.167969 193.183594 160.152344 193.050781 C 160.117188 192.703125 160.089844 192.355469 160.070312 192.007812 C 160.0625 191.890625 160.054688 191.773438 160.046875 191.65625 C 160.039062 191.441406 160.027344 191.222656 160.023438 191.007812 C 160.019531 190.902344 160.019531 190.792969 160.019531 190.6875 C 160.015625 190.316406 160.015625 189.941406 160.027344 189.570312 C 160.03125 189.457031 160.035156 189.347656 160.039062 189.234375 C 160.15625 186.566406 160.664062 183.972656 161.5625 181.453125 C 162.460938 178.9375 163.710938 176.609375 165.316406 174.46875 C 165.601562 174.085938 165.898438 173.710938 166.203125 173.347656 C 158.742188 184.558594 161.28125 199.832031 172.203125 207.980469 C 183.125 216.132812 198.488281 214.222656 207.117188 203.878906 C 206.851562 204.277344 206.578125 204.667969 206.289062 205.050781 C 204.761719 207.105469 202.976562 208.902344 200.929688 210.441406 C 198.882812 211.976562 196.660156 213.195312 194.261719 214.089844 Z M 178.691406 186.179688 C 178.519531 186.285156 178.332031 186.34375 178.132812 186.359375 C 177.929688 186.371094 177.738281 186.34375 177.550781 186.269531 C 177.363281 186.191406 177.203125 186.082031 177.070312 185.929688 C 176.9375 185.78125 176.839844 185.609375 176.789062 185.414062 C 176.734375 185.222656 176.726562 185.027344 176.761719 184.828125 C 176.800781 184.632812 176.878906 184.453125 177 184.289062 C 177.121094 184.128906 177.269531 184.003906 177.449219 183.914062 C 177.628906 183.824219 177.820312 183.777344 178.019531 183.773438 C 178.222656 183.773438 178.414062 183.816406 178.59375 183.902344 C 178.773438 183.988281 178.925781 184.113281 179.050781 184.269531 C 179.175781 184.429688 179.257812 184.605469 179.300781 184.800781 C 179.339844 185 179.335938 185.195312 179.285156 185.390625 C 179.195312 185.734375 179 186 178.691406 186.179688 Z M 173.921875 192.710938 C 173.578125 193.003906 169.132812 195.742188 167.433594 195.8125 C 166.992188 195.832031 166.515625 195.507812 166.058594 195.023438 C 165.082031 192.222656 164.664062 189.34375 164.804688 186.382812 C 165.105469 185.785156 165.464844 185.339844 165.898438 185.230469 C 166.308594 185.128906 166.933594 185.136719 167.644531 185.207031 C 167.820312 185.226562 168.003906 185.246094 168.191406 185.273438 C 168.566406 185.324219 168.953125 185.386719 169.335938 185.460938 C 171.070312 185.78125 172.765625 186.257812 172.996094 186.359375 C 173.117188 186.414062 173.277344 186.609375 173.449219 186.878906 C 173.648438 187.199219 173.820312 187.527344 173.972656 187.867188 C 174.003906 188.925781 174.15625 189.964844 174.429688 190.988281 C 174.316406 191.78125 174.113281 192.539062 173.917969 192.710938 Z M 183.179688 180.199219 C 183.035156 180.289062 182.875 180.34375 182.707031 180.367188 C 182.535156 180.394531 182.367188 180.382812 182.203125 180.339844 C 182.035156 180.296875 181.882812 180.226562 181.746094 180.121094 C 181.609375 180.019531 181.496094 179.894531 181.410156 179.746094 C 181.363281 179.671875 181.328125 179.589844 181.300781 179.507812 C 181.199219 179.21875 181.203125 178.929688 181.308594 178.640625 C 181.414062 178.351562 181.597656 178.128906 181.863281 177.972656 C 181.9375 177.929688 182.015625 177.890625 182.097656 177.863281 C 182.414062 177.753906 182.722656 177.765625 183.027344 177.898438 C 183.332031 178.027344 183.554688 178.242188 183.695312 178.542969 C 183.832031 178.847656 183.855469 179.15625 183.753906 179.472656 C 183.65625 179.789062 183.464844 180.03125 183.179688 180.199219 Z M 187.125 173.972656 C 186.066406 174.003906 185.027344 174.15625 184.003906 174.425781 C 183.207031 174.316406 182.449219 174.113281 182.28125 173.917969 C 181.988281 173.578125 179.25 169.128906 179.175781 167.433594 C 179.164062 167.15625 179.289062 166.867188 179.5 166.578125 C 179.542969 166.523438 179.585938 166.460938 179.636719 166.40625 C 179.742188 166.285156 179.851562 166.167969 179.96875 166.058594 C 180.660156 165.816406 181.363281 165.609375 182.074219 165.433594 C 182.429688 165.347656 182.785156 165.269531 183.144531 165.203125 C 184.949219 164.851562 186.769531 164.71875 188.605469 164.804688 C 188.679688 164.84375 188.753906 164.878906 188.824219 164.921875 C 189.242188 165.15625 189.558594 165.429688 189.703125 165.738281 C 189.726562 165.792969 189.742188 165.84375 189.757812 165.898438 C 189.820312 166.15625 189.84375 166.496094 189.832031 166.886719 C 189.804688 167.515625 189.738281 168.140625 189.628906 168.761719 C 189.613281 168.855469 189.597656 168.953125 189.582031 169.050781 C 189.464844 169.722656 189.316406 170.402344 189.175781 171.007812 C 189.113281 171.265625 189.054688 171.507812 188.996094 171.734375 C 188.902344 172.105469 188.816406 172.417969 188.746094 172.644531 C 188.71875 172.734375 188.695312 172.8125 188.675781 172.871094 C 188.65625 172.929688 188.640625 172.972656 188.628906 173 C 188.613281 173.035156 188.589844 173.066406 188.5625 173.097656 C 188.355469 173.332031 187.761719 173.683594 187.125 173.972656 Z M 175.417969 172.273438 C 175.585938 172.496094 175.757812 172.734375 175.925781 172.972656 L 176.09375 173.214844 C 176.203125 173.375 176.3125 173.539062 176.421875 173.699219 C 176.898438 174.429688 177.328125 175.136719 177.625 175.65625 C 177.691406 175.773438 177.753906 175.878906 177.804688 175.972656 C 177.828125 176.019531 177.855469 176.066406 177.875 176.105469 C 177.964844 176.269531 178.023438 176.386719 178.042969 176.441406 C 178.078125 176.53125 178.074219 176.695312 178.039062 176.902344 C 178.03125 176.972656 178.015625 177.046875 177.996094 177.125 C 177.914062 177.488281 177.804688 177.84375 177.671875 178.195312 C 177.492188 178.382812 177.316406 178.578125 177.144531 178.78125 C 176.976562 178.980469 176.808594 179.1875 176.648438 179.402344 C 176.570312 179.507812 176.496094 179.621094 176.421875 179.730469 C 176.195312 180.054688 175.976562 180.386719 175.78125 180.726562 C 175.300781 181.085938 174.800781 181.398438 174.46875 181.523438 C 174.386719 181.5625 174.296875 181.582031 174.207031 181.582031 C 174.082031 181.566406 173.957031 181.542969 173.835938 181.515625 C 173.792969 181.507812 173.742188 181.496094 173.6875 181.484375 C 173.582031 181.460938 173.464844 181.433594 173.335938 181.402344 C 172.753906 181.265625 171.953125 181.058594 171.117188 180.804688 C 170.933594 180.746094 170.746094 180.6875 170.558594 180.628906 L 170.28125 180.535156 C 170 180.441406 169.726562 180.347656 169.460938 180.246094 C 169.375 180.214844 169.289062 180.179688 169.203125 180.144531 C 168.433594 179.839844 167.777344 179.511719 167.425781 179.1875 C 167.339844 179.109375 167.273438 179.015625 167.21875 178.914062 C 167.191406 178.859375 167.167969 178.800781 167.144531 178.742188 C 167.097656 178.613281 167.066406 178.480469 167.046875 178.347656 C 167.015625 178.113281 167.003906 177.878906 167.011719 177.640625 C 167.488281 176.65625 168.027344 175.710938 168.636719 174.804688 C 168.84375 174.5 169.054688 174.195312 169.277344 173.898438 C 169.5 173.601562 169.730469 173.308594 169.964844 173.023438 C 170.433594 172.457031 170.925781 171.917969 171.4375 171.40625 C 171.695312 171.152344 171.957031 170.902344 172.222656 170.660156 C 172.375 170.609375 172.53125 170.566406 172.6875 170.535156 C 172.988281 170.46875 173.265625 170.453125 173.5 170.496094 C 173.613281 170.519531 173.722656 170.558594 173.824219 170.617188 C 174.230469 170.863281 174.734375 171.398438 175.246094 172.046875 C 175.300781 172.121094 175.359375 172.199219 175.417969 172.273438 Z M 182.683594 183.90625 C 183.289062 183.089844 184.054688 182.472656 184.976562 182.046875 C 185.152344 181.964844 185.332031 181.894531 185.511719 181.828125 C 185.742188 181.75 185.980469 181.683594 186.21875 181.628906 C 186.457031 181.578125 186.699219 181.539062 186.941406 181.519531 C 187.1875 181.496094 187.429688 181.488281 187.675781 181.496094 C 187.921875 181.503906 188.164062 181.527344 188.40625 181.5625 C 188.648438 181.601562 188.886719 181.652344 189.121094 181.71875 C 189.355469 181.785156 189.589844 181.863281 189.8125 181.960938 C 190.039062 182.054688 190.257812 182.164062 190.472656 182.285156 C 190.683594 182.40625 190.886719 182.539062 191.085938 182.683594 C 191.28125 182.832031 191.46875 182.988281 191.644531 183.160156 C 191.820312 183.328125 191.988281 183.507812 192.140625 183.695312 C 192.296875 183.886719 192.4375 184.085938 192.570312 184.292969 C 192.699219 184.5 192.816406 184.714844 192.921875 184.933594 C 193.027344 185.15625 193.117188 185.382812 193.195312 185.613281 C 193.269531 185.847656 193.332031 186.082031 193.382812 186.324219 C 193.429688 186.5625 193.460938 186.804688 193.480469 187.050781 C 193.5 187.292969 193.5 187.539062 193.492188 187.78125 C 193.480469 187.976562 193.464844 188.167969 193.433594 188.359375 C 193.289062 189.363281 192.914062 190.273438 192.304688 191.085938 C 192.070312 191.40625 191.808594 191.699219 191.515625 191.964844 C 191.222656 192.234375 190.90625 192.46875 190.566406 192.675781 C 190.226562 192.878906 189.871094 193.050781 189.5 193.183594 C 189.125 193.320312 188.742188 193.417969 188.351562 193.476562 C 187.960938 193.535156 187.566406 193.554688 187.171875 193.535156 C 186.773438 193.515625 186.382812 193.457031 186 193.359375 C 185.613281 193.261719 185.242188 193.128906 184.886719 192.960938 C 184.527344 192.789062 184.191406 192.585938 183.871094 192.347656 C 183.554688 192.113281 183.261719 191.847656 183 191.550781 C 182.734375 191.257812 182.5 190.9375 182.296875 190.597656 C 182.097656 190.257812 181.929688 189.898438 181.796875 189.523438 C 181.667969 189.152344 181.574219 188.765625 181.519531 188.375 C 181.464844 187.984375 181.445312 187.589844 181.46875 187.191406 C 181.492188 186.796875 181.554688 186.40625 181.65625 186.023438 C 181.753906 185.640625 181.890625 185.269531 182.066406 184.914062 C 182.238281 184.558594 182.445312 184.222656 182.683594 183.90625 Z M 196.558594 183.632812 C 196.335938 183.765625 196.09375 183.824219 195.835938 183.8125 C 195.574219 183.796875 195.339844 183.714844 195.132812 183.5625 C 194.992188 183.457031 194.878906 183.328125 194.789062 183.179688 C 194.699219 183.027344 194.644531 182.867188 194.621094 182.695312 C 194.609375 182.609375 194.605469 182.527344 194.609375 182.445312 C 194.625 182.160156 194.726562 181.910156 194.910156 181.691406 C 195.089844 181.472656 195.320312 181.328125 195.597656 181.261719 C 195.875 181.195312 196.144531 181.21875 196.40625 181.328125 C 196.667969 181.4375 196.871094 181.617188 197.015625 181.863281 C 197.152344 182.089844 197.210938 182.335938 197.195312 182.597656 C 197.167969 183.054688 196.957031 183.402344 196.5625 183.632812 Z M 202.9375 175.246094 C 202.429688 175.640625 201.851562 176.046875 201.289062 176.421875 C 201.125 176.527344 200.964844 176.632812 200.808594 176.730469 C 199.9375 177.285156 199.15625 177.734375 198.769531 177.9375 C 198.664062 177.992188 198.589844 178.027344 198.546875 178.042969 C 198.308594 178.136719 197.546875 177.953125 196.792969 177.671875 C 196.605469 177.492188 196.410156 177.316406 196.207031 177.144531 C 196.007812 176.976562 195.800781 176.808594 195.585938 176.648438 C 195.371094 176.488281 195.152344 176.339844 194.933594 176.195312 C 194.710938 176.050781 194.488281 175.910156 194.261719 175.78125 C 193.78125 175.140625 193.386719 174.464844 193.40625 174.207031 C 193.410156 174.164062 193.421875 174.082031 193.445312 173.964844 C 193.527344 173.539062 193.738281 172.65625 194.023438 171.664062 C 194.074219 171.484375 194.128906 171.300781 194.183594 171.117188 C 194.378906 170.46875 194.605469 169.800781 194.839844 169.203125 C 194.910156 169.03125 194.976562 168.867188 195.046875 168.707031 C 195.082031 168.628906 195.117188 168.554688 195.152344 168.480469 C 195.222656 168.328125 195.296875 168.1875 195.367188 168.058594 C 195.402344 167.996094 195.4375 167.929688 195.472656 167.871094 C 195.539062 167.761719 195.613281 167.65625 195.691406 167.554688 C 195.726562 167.507812 195.761719 167.464844 195.796875 167.425781 C 196.023438 167.179688 196.402344 167.058594 196.859375 167.023438 C 197.019531 167.011719 197.183594 167.007812 197.34375 167.015625 C 197.992188 167.328125 198.625 167.671875 199.253906 168.046875 C 199.878906 168.421875 200.488281 168.835938 201.085938 169.28125 C 201.683594 169.726562 202.25 170.195312 202.789062 170.6875 C 203.328125 171.179688 203.839844 171.691406 204.324219 172.222656 C 204.425781 172.515625 204.488281 172.8125 204.511719 173.121094 C 204.515625 173.1875 204.515625 173.253906 204.511719 173.316406 C 204.503906 173.496094 204.457031 173.664062 204.367188 173.824219 C 204.339844 173.867188 204.308594 173.914062 204.277344 173.960938 C 204.199219 174.066406 204.121094 174.164062 204.03125 174.261719 C 203.984375 174.3125 203.9375 174.363281 203.882812 174.414062 C 203.78125 174.519531 203.664062 174.628906 203.542969 174.738281 C 203.480469 174.796875 203.417969 174.851562 203.351562 174.90625 C 203.222656 175.019531 203.082031 175.132812 202.9375 175.246094 Z M 189.984375 176.738281 C 190.074219 176.746094 190.160156 176.757812 190.246094 176.78125 C 190.476562 176.839844 190.675781 176.953125 190.84375 177.125 C 191.011719 177.292969 191.125 177.496094 191.179688 177.726562 C 191.238281 177.960938 191.230469 178.191406 191.160156 178.417969 C 191.085938 178.648438 190.960938 178.839844 190.78125 179 C 190.65625 179.109375 190.515625 179.195312 190.359375 179.25 C 190.109375 179.339844 189.859375 179.351562 189.601562 179.285156 C 189.28125 179.203125 189.027344 179.023438 188.84375 178.746094 C 188.660156 178.46875 188.59375 178.167969 188.644531 177.839844 C 188.691406 177.511719 188.847656 177.242188 189.101562 177.03125 C 189.359375 176.820312 189.65625 176.722656 189.988281 176.742188 Z M 176.4375 196.945312 C 176.679688 196.851562 177.441406 197.035156 178.191406 197.316406 C 178.960938 198.050781 179.804688 198.679688 180.722656 199.207031 C 181.207031 199.847656 181.601562 200.523438 181.582031 200.78125 C 181.550781 201.230469 180.339844 206.3125 179.1875 207.566406 C 178.886719 207.894531 178.316406 208 177.644531 207.976562 C 174.976562 206.695312 172.648438 204.960938 170.664062 202.765625 C 170.449219 202.128906 170.390625 201.550781 170.617188 201.167969 C 171.492188 199.707031 176.019531 197.105469 176.4375 196.945312 Z M 178.042969 191.699219 C 178.160156 191.546875 178.300781 191.421875 178.472656 191.332031 C 178.644531 191.238281 178.824219 191.1875 179.019531 191.179688 C 179.210938 191.167969 179.398438 191.203125 179.578125 191.277344 C 179.757812 191.347656 179.910156 191.457031 180.042969 191.601562 C 180.160156 191.734375 180.25 191.882812 180.308594 192.050781 C 180.34375 192.15625 180.367188 192.261719 180.375 192.375 C 180.382812 192.484375 180.375 192.59375 180.355469 192.707031 C 180.335938 192.816406 180.300781 192.917969 180.253906 193.019531 C 180.207031 193.121094 180.148438 193.214844 180.074219 193.300781 C 180.003906 193.386719 179.921875 193.460938 179.832031 193.523438 C 179.742188 193.589844 179.644531 193.640625 179.539062 193.679688 C 179.4375 193.71875 179.328125 193.746094 179.21875 193.757812 C 179.105469 193.769531 178.996094 193.765625 178.886719 193.75 C 178.777344 193.730469 178.671875 193.699219 178.570312 193.65625 C 178.464844 193.613281 178.371094 193.554688 178.285156 193.488281 C 178.195312 193.417969 178.121094 193.339844 178.050781 193.25 C 177.984375 193.160156 177.929688 193.066406 177.886719 192.960938 C 177.84375 192.859375 177.816406 192.753906 177.800781 192.644531 C 177.785156 192.53125 177.785156 192.421875 177.800781 192.3125 C 177.8125 192.199219 177.839844 192.09375 177.882812 191.992188 C 177.921875 191.886719 177.976562 191.789062 178.042969 191.699219 Z M 185.128906 195.664062 C 185.21875 195.667969 185.304688 195.683594 185.386719 195.703125 C 185.554688 195.746094 185.707031 195.820312 185.84375 195.921875 C 185.980469 196.023438 186.09375 196.152344 186.179688 196.296875 C 186.265625 196.445312 186.324219 196.605469 186.347656 196.773438 C 186.371094 196.945312 186.363281 197.113281 186.320312 197.277344 C 186.277344 197.445312 186.203125 197.597656 186.101562 197.734375 C 185.996094 197.871094 185.871094 197.984375 185.726562 198.070312 C 185.578125 198.15625 185.417969 198.214844 185.25 198.238281 C 185.078125 198.261719 184.910156 198.253906 184.746094 198.210938 C 184.578125 198.167969 184.425781 198.09375 184.289062 197.992188 C 184.152344 197.886719 184.039062 197.761719 183.953125 197.617188 C 183.867188 197.46875 183.808594 197.308594 183.785156 197.140625 C 183.761719 196.96875 183.769531 196.800781 183.8125 196.636719 C 183.855469 196.464844 183.929688 196.3125 184.035156 196.171875 C 184.3125 195.8125 184.675781 195.644531 185.128906 195.664062 Z M 197.28125 188.671875 C 197.445312 188.714844 197.597656 188.789062 197.734375 188.890625 C 197.871094 188.992188 197.984375 189.117188 198.070312 189.265625 C 198.160156 189.414062 198.214844 189.574219 198.238281 189.742188 C 198.261719 189.914062 198.253906 190.082031 198.210938 190.246094 C 198.167969 190.414062 198.09375 190.5625 197.992188 190.703125 C 197.890625 190.839844 197.765625 190.949219 197.617188 191.039062 C 197.46875 191.125 197.308594 191.179688 197.140625 191.207031 C 196.972656 191.230469 196.804688 191.21875 196.636719 191.179688 C 196.46875 191.136719 196.320312 191.0625 196.183594 190.960938 C 196.042969 190.855469 195.933594 190.730469 195.84375 190.582031 C 195.757812 190.4375 195.703125 190.277344 195.675781 190.105469 C 195.652344 189.9375 195.664062 189.769531 195.707031 189.601562 C 195.75 189.433594 195.824219 189.28125 195.929688 189.140625 C 196.085938 188.933594 196.289062 188.789062 196.535156 188.703125 C 196.777344 188.617188 197.027344 188.605469 197.28125 188.671875 Z M 201.070312 182.28125 C 201.082031 182.273438 201.09375 182.261719 201.113281 182.25 C 201.167969 182.207031 201.257812 182.144531 201.378906 182.066406 C 201.652344 181.886719 202.082031 181.621094 202.597656 181.320312 C 203.1875 180.980469 203.886719 180.59375 204.585938 180.246094 C 204.671875 180.203125 204.761719 180.160156 204.847656 180.117188 C 205.410156 179.835938 205.992188 179.59375 206.585938 179.390625 C 206.660156 179.363281 206.734375 179.34375 206.804688 179.320312 C 207.050781 179.246094 207.300781 179.199219 207.554688 179.179688 C 208 179.160156 208.472656 179.484375 208.929688 179.96875 C 209.910156 182.769531 210.328125 185.652344 210.1875 188.613281 C 209.886719 189.207031 209.523438 189.652344 209.09375 189.761719 C 208.679688 189.863281 208.058594 189.859375 207.347656 189.785156 C 206.8125 189.730469 206.230469 189.640625 205.652344 189.535156 L 205.363281 189.480469 C 205.171875 189.441406 204.984375 189.402344 204.796875 189.363281 C 204.328125 189.261719 203.882812 189.15625 203.488281 189.058594 C 202.703125 188.863281 202.121094 188.691406 201.992188 188.632812 C 201.757812 188.527344 201.347656 187.855469 201.015625 187.125 C 201.007812 186.863281 200.992188 186.601562 200.96875 186.335938 C 200.945312 186.074219 200.914062 185.8125 200.878906 185.550781 C 200.804688 185.03125 200.699219 184.515625 200.5625 184.003906 C 200.65625 183.308594 200.824219 182.640625 200.996094 182.371094 C 201.015625 182.339844 201.042969 182.308594 201.070312 182.28125 Z M 196.941406 198.550781 C 196.851562 198.308594 197.035156 197.550781 197.316406 196.796875 C 197.585938 196.511719 197.839844 196.210938 198.089844 195.902344 C 198.171875 195.796875 198.257812 195.695312 198.335938 195.589844 C 198.496094 195.375 198.648438 195.15625 198.792969 194.9375 C 198.9375 194.714844 199.074219 194.492188 199.207031 194.265625 C 199.84375 193.78125 200.523438 193.390625 200.78125 193.410156 C 201.230469 193.445312 206.308594 194.652344 207.5625 195.804688 C 207.890625 196.105469 207.996094 196.675781 207.976562 197.347656 C 206.695312 200.015625 204.957031 202.34375 202.765625 204.328125 C 202.683594 204.355469 202.605469 204.378906 202.527344 204.402344 C 202.382812 204.441406 202.230469 204.472656 202.078125 204.496094 C 201.722656 204.546875 201.40625 204.515625 201.167969 204.371094 C 199.707031 203.496094 197.101562 198.972656 196.945312 198.550781 Z M 195.019531 208.933594 C 192.21875 209.910156 189.339844 210.328125 186.378906 210.1875 C 185.78125 209.886719 185.335938 209.527344 185.230469 209.097656 C 184.816406 207.449219 186.171875 202.40625 186.359375 201.996094 C 186.464844 201.761719 187.132812 201.351562 187.863281 201.019531 C 188.128906 201.011719 188.390625 200.996094 188.652344 200.972656 C 189.441406 200.90625 190.21875 200.769531 190.984375 200.566406 C 191.78125 200.671875 192.539062 200.878906 192.707031 201.074219 C 192.742188 201.117188 192.820312 201.222656 192.921875 201.378906 C 193.050781 201.578125 193.222656 201.855469 193.421875 202.183594 C 193.5 202.316406 193.582031 202.453125 193.667969 202.601562 C 194.566406 204.148438 195.761719 206.445312 195.8125 207.558594 C 195.832031 208 195.503906 208.472656 195.019531 208.933594 Z M 191.808594 194.792969 C 191.957031 194.703125 192.113281 194.648438 192.285156 194.625 C 192.453125 194.601562 192.621094 194.609375 192.789062 194.652344 C 192.957031 194.695312 193.105469 194.769531 193.242188 194.871094 C 193.382812 194.972656 193.492188 195.097656 193.582031 195.246094 C 193.625 195.324219 193.664062 195.402344 193.691406 195.484375 C 193.839844 195.914062 193.777344 196.3125 193.507812 196.675781 C 193.457031 196.742188 193.398438 196.804688 193.335938 196.863281 C 193.203125 196.988281 193.046875 197.078125 192.871094 197.132812 C 192.699219 197.191406 192.523438 197.210938 192.339844 197.191406 C 192.15625 197.175781 191.988281 197.121094 191.828125 197.03125 C 191.667969 196.9375 191.535156 196.820312 191.425781 196.671875 C 191.320312 196.527344 191.246094 196.363281 191.203125 196.183594 C 191.164062 196.007812 191.164062 195.828125 191.199219 195.648438 C 191.238281 195.46875 191.308594 195.304688 191.414062 195.15625 C 191.519531 195.007812 191.652344 194.886719 191.808594 194.792969 Z M 212.09375 154.539062 C 193.535156 140.6875 167.042969 144.554688 152.347656 163.007812 C 152.613281 162.625 152.882812 162.246094 153.164062 161.875 C 167.289062 142.945312 194.1875 139.035156 213.117188 153.164062 C 232.046875 167.292969 235.953125 194.1875 221.824219 213.117188 C 221.546875 213.492188 221.261719 213.859375 220.96875 214.222656 C 234.476562 194.886719 230.648438 168.386719 212.09375 154.539062 Z M 212.09375 154.539062 " fill-opacity="1" fill-rule="nonzero"/></g></g></g><g clip-path="url(#2a5c59175a)"><g clip-path="url(#65442992dd)"><g clip-path="url(#177b16143b)"><path fill="#ffffff" d="M 213.117188 153.164062 C 194.1875 139.039062 167.292969 142.941406 153.164062 161.875 C 152.882812 162.246094 152.613281 162.625 152.347656 163.007812 C 167.042969 144.554688 193.535156 140.6875 212.09375 154.539062 C 230.648438 168.386719 234.480469 194.882812 220.96875 214.222656 C 221.261719 213.859375 221.546875 213.492188 221.824219 213.117188 C 235.953125 194.1875 232.046875 167.292969 213.117188 153.164062 Z M 213.117188 153.164062 " fill-opacity="1" fill-rule="nonzero"/></g></g></g><g clip-path="url(#b9a1efac26)"><g clip-path="url(#292b444344)"><g clip-path="url(#53b1c39408)"><path fill="#ffffff" d="M 172.203125 207.984375 C 161.28125 199.832031 158.742188 184.5625 166.203125 173.347656 C 165.898438 173.710938 165.601562 174.085938 165.316406 174.472656 C 163.710938 176.609375 162.460938 178.9375 161.5625 181.457031 C 160.664062 183.972656 160.15625 186.566406 160.039062 189.238281 C 160.035156 189.347656 160.03125 189.460938 160.027344 189.570312 C 160.015625 189.941406 160.011719 190.316406 160.015625 190.6875 C 160.019531 190.792969 160.019531 190.902344 160.019531 191.007812 C 160.027344 191.222656 160.035156 191.4375 160.042969 191.65625 C 160.050781 191.773438 160.058594 191.890625 160.066406 192.007812 C 160.085938 192.355469 160.117188 192.703125 160.152344 193.050781 C 160.164062 193.183594 160.175781 193.3125 160.191406 193.441406 C 160.21875 193.644531 160.242188 193.847656 160.273438 194.046875 C 160.300781 194.246094 160.335938 194.46875 160.371094 194.675781 C 160.410156 194.921875 160.453125 195.164062 160.503906 195.40625 C 160.53125 195.5625 160.566406 195.714844 160.597656 195.871094 C 160.648438 196.105469 160.703125 196.339844 160.757812 196.574219 C 160.8125 196.792969 160.867188 197.011719 160.925781 197.226562 C 160.972656 197.394531 161.019531 197.5625 161.070312 197.730469 C 161.125 197.925781 161.1875 198.117188 161.25 198.3125 C 161.316406 198.523438 161.386719 198.734375 161.457031 198.941406 C 161.53125 199.152344 161.609375 199.359375 161.6875 199.570312 C 161.742188 199.714844 161.792969 199.855469 161.851562 199.996094 C 161.96875 200.285156 162.085938 200.570312 162.210938 200.855469 C 162.261719 200.96875 162.316406 201.082031 162.367188 201.199219 C 162.46875 201.417969 162.574219 201.640625 162.683594 201.859375 C 162.738281 201.96875 162.792969 202.082031 162.847656 202.191406 C 162.996094 202.484375 163.152344 202.769531 163.316406 203.058594 C 163.371094 203.160156 163.433594 203.261719 163.492188 203.359375 C 163.636719 203.609375 163.785156 203.855469 163.9375 204.097656 C 163.980469 204.164062 164.019531 204.230469 164.0625 204.296875 C 164.25 204.589844 164.445312 204.875 164.644531 205.160156 C 164.707031 205.246094 164.769531 205.332031 164.832031 205.417969 C 165.039062 205.707031 165.25 205.988281 165.472656 206.269531 C 165.503906 206.3125 165.542969 206.355469 165.578125 206.398438 C 165.78125 206.652344 165.988281 206.902344 166.207031 207.148438 C 166.265625 207.21875 166.320312 207.285156 166.382812 207.351562 C 166.625 207.625 166.871094 207.890625 167.125 208.15625 C 167.179688 208.210938 167.234375 208.261719 167.289062 208.316406 C 167.523438 208.554688 167.761719 208.789062 168.007812 209.019531 C 168.054688 209.0625 168.097656 209.105469 168.144531 209.144531 C 168.421875 209.398438 168.707031 209.648438 168.996094 209.890625 C 169.0625 209.945312 169.128906 210 169.195312 210.054688 C 169.496094 210.304688 169.800781 210.546875 170.113281 210.78125 C 170.425781 211.011719 170.746094 211.238281 171.070312 211.457031 C 171.140625 211.503906 171.210938 211.550781 171.285156 211.597656 C 171.601562 211.808594 171.917969 212.011719 172.242188 212.203125 C 172.292969 212.234375 172.347656 212.265625 172.398438 212.296875 C 172.691406 212.464844 172.984375 212.632812 173.277344 212.789062 C 173.347656 212.824219 173.414062 212.863281 173.480469 212.898438 C 173.804688 213.066406 174.132812 213.230469 174.460938 213.382812 C 174.542969 213.421875 174.625 213.457031 174.707031 213.492188 C 175.003906 213.628906 175.304688 213.757812 175.605469 213.882812 C 175.65625 213.902344 175.707031 213.925781 175.757812 213.949219 C 176.089844 214.078125 176.425781 214.199219 176.757812 214.320312 C 176.859375 214.355469 176.957031 214.390625 177.058594 214.421875 C 177.386719 214.535156 177.71875 214.640625 178.050781 214.738281 C 178.125 214.761719 178.203125 214.777344 178.277344 214.800781 C 178.554688 214.878906 178.832031 214.949219 179.109375 215.019531 C 179.222656 215.046875 179.339844 215.074219 179.453125 215.101562 C 179.773438 215.175781 180.089844 215.242188 180.410156 215.300781 C 180.535156 215.324219 180.660156 215.34375 180.785156 215.367188 C 181.023438 215.40625 181.261719 215.445312 181.503906 215.476562 C 181.628906 215.496094 181.753906 215.515625 181.878906 215.53125 C 182.1875 215.570312 182.496094 215.605469 182.800781 215.632812 C 182.953125 215.644531 183.109375 215.65625 183.257812 215.667969 C 183.480469 215.683594 183.703125 215.699219 183.921875 215.707031 C 184.144531 215.71875 184.367188 215.726562 184.589844 215.730469 C 184.792969 215.734375 184.996094 215.738281 185.195312 215.738281 C 185.371094 215.738281 185.546875 215.734375 185.71875 215.730469 C 185.941406 215.726562 186.164062 215.71875 186.386719 215.707031 C 186.628906 215.695312 186.875 215.679688 187.117188 215.660156 C 187.273438 215.648438 187.429688 215.632812 187.585938 215.621094 C 187.835938 215.597656 188.082031 215.570312 188.332031 215.539062 C 188.539062 215.511719 188.75 215.484375 188.953125 215.453125 C 189.160156 215.425781 189.355469 215.390625 189.558594 215.359375 C 189.6875 215.335938 189.816406 215.3125 189.945312 215.289062 C 190.289062 215.222656 190.628906 215.152344 190.972656 215.070312 C 191.085938 215.046875 191.199219 215.019531 191.3125 214.992188 C 191.523438 214.941406 191.730469 214.886719 191.941406 214.832031 C 192.042969 214.804688 192.148438 214.773438 192.25 214.742188 C 192.605469 214.640625 192.960938 214.53125 193.3125 214.414062 C 193.421875 214.378906 193.527344 214.34375 193.636719 214.308594 C 193.84375 214.238281 194.054688 214.164062 194.261719 214.085938 C 196.660156 213.191406 198.878906 211.976562 200.925781 210.441406 C 202.972656 208.902344 204.761719 207.105469 206.289062 205.054688 C 206.578125 204.667969 206.851562 204.277344 207.113281 203.882812 C 198.488281 214.226562 183.125 216.132812 172.203125 207.984375 Z M 172.203125 207.984375 " fill-opacity="1" fill-rule="nonzero"/></g></g></g><g clip-path="url(#25406ac9fd)"><g clip-path="url(#bc2a24d9b1)"><g clip-path="url(#1eb72aeb0f)"><path fill="#ff4e1f" d="M 164.492188 218.316406 C 148.230469 206.179688 144.875 183.074219 157.011719 166.8125 C 169.148438 150.546875 192.253906 147.191406 208.515625 159.328125 C 224.777344 171.464844 228.132812 194.570312 215.996094 210.832031 C 203.859375 227.09375 180.753906 230.453125 164.492188 218.316406 Z M 207.789062 160.304688 C 192.0625 148.566406 169.722656 151.8125 157.988281 167.539062 C 146.25 183.261719 149.496094 205.605469 165.21875 217.339844 C 180.945312 229.078125 203.285156 225.832031 215.023438 210.105469 C 226.757812 194.382812 223.511719 172.039062 207.789062 160.304688 Z M 207.789062 160.304688 " fill-opacity="1" fill-rule="nonzero"/></g></g></g></svg>