<svg xmlns="http://www.w3.org/2000/svg" xmlns:xlink="http://www.w3.org/1999/xlink" width="500" zoomAndPan="magnify" viewBox="0 0 375 374.999991" height="500" preserveAspectRatio="xMidYMid meet" version="1.0"><defs><g/><clipPath id="a1d46cb47f"><path d="M 74.339844 140.109375 L 194.378906 140.109375 L 194.378906 159.882812 L 74.339844 159.882812 Z M 74.339844 140.109375 " clip-rule="nonzero"/></clipPath><clipPath id="987b904807"><path d="M 194.378906 149.996094 L 74.410156 159.882812 L 74.410156 140.109375 Z M 194.378906 149.996094 " clip-rule="nonzero"/></clipPath><clipPath id="0d361fa6f2"><path d="M 77.203125 148.617188 L 255.308594 148.617188 L 255.308594 159.882812 L 77.203125 159.882812 Z M 77.203125 148.617188 " clip-rule="nonzero"/></clipPath><clipPath id="ee642ca246"><path d="M 74.40625 155.320312 L 249.980469 155.320312 L 249.980469 175.09375 L 74.40625 175.09375 Z M 74.40625 155.320312 " clip-rule="nonzero"/></clipPath><clipPath id="9634359400"><path d="M 249.980469 165.207031 L 74.410156 175.09375 L 74.410156 155.320312 Z M 249.980469 165.207031 " clip-rule="nonzero"/></clipPath><clipPath id="a77a25c524"><path d="M 77.203125 163.824219 L 255.308594 163.824219 L 255.308594 175.09375 L 77.203125 175.09375 Z M 77.203125 163.824219 " clip-rule="nonzero"/></clipPath><clipPath id="445b001542"><path d="M 24 139 L 120 139 L 120 236 L 24 236 Z M 24 139 " clip-rule="nonzero"/></clipPath><clipPath id="2eadde7253"><path d="M 62.144531 120.734375 L 138.476562 177.707031 L 81.507812 254.039062 L 5.171875 197.070312 Z M 62.144531 120.734375 " clip-rule="nonzero"/></clipPath><clipPath id="b462585be1"><path d="M 62.144531 120.734375 L 138.476562 177.707031 L 81.507812 254.039062 L 5.171875 197.070312 Z M 62.144531 120.734375 " clip-rule="nonzero"/></clipPath><clipPath id="1526da1d76"><path d="M 36 144 L 115 144 L 115 215 L 36 215 Z M 36 144 " clip-rule="nonzero"/></clipPath><clipPath id="d5392195c3"><path d="M 62.144531 120.734375 L 138.476562 177.707031 L 81.507812 254.039062 L 5.171875 197.070312 Z M 62.144531 120.734375 " clip-rule="nonzero"/></clipPath><clipPath id="bdffbccc57"><path d="M 62.144531 120.734375 L 138.476562 177.707031 L 81.507812 254.039062 L 5.171875 197.070312 Z M 62.144531 120.734375 " clip-rule="nonzero"/></clipPath><clipPath id="47eb1038bd"><path d="M 44 173 L 92 173 L 92 216 L 44 216 Z M 44 173 " clip-rule="nonzero"/></clipPath><clipPath id="a430cbdd01"><path d="M 62.144531 120.734375 L 138.476562 177.707031 L 81.507812 254.039062 L 5.171875 197.070312 Z M 62.144531 120.734375 " clip-rule="nonzero"/></clipPath><clipPath id="fb438f0c69"><path d="M 62.144531 120.734375 L 138.476562 177.707031 L 81.507812 254.039062 L 5.171875 197.070312 Z M 62.144531 120.734375 " clip-rule="nonzero"/></clipPath><clipPath id="5fcde673be"><path d="M 34 152 L 108 152 L 108 226 L 34 226 Z M 34 152 " clip-rule="nonzero"/></clipPath><clipPath id="9742614f6e"><path d="M 62.144531 120.734375 L 138.476562 177.707031 L 81.507812 254.039062 L 5.171875 197.070312 Z M 62.144531 120.734375 " clip-rule="nonzero"/></clipPath><clipPath id="f234393879"><path d="M 62.144531 120.734375 L 138.476562 177.707031 L 81.507812 254.039062 L 5.171875 197.070312 Z M 62.144531 120.734375 " clip-rule="nonzero"/></clipPath></defs><g clip-path="url(#a1d46cb47f)"><g clip-path="url(#987b904807)"><path fill="#1e1411" d="M 194.378906 140.109375 L 194.378906 159.882812 L 74.414062 159.882812 L 74.414062 140.109375 Z M 194.378906 140.109375 " fill-opacity="1" fill-rule="nonzero"/></g></g><g clip-path="url(#0d361fa6f2)"><path fill="#ffffff" d="M 77.203125 148.617188 L 255.316406 148.617188 L 255.316406 159.882812 L 77.203125 159.882812 Z M 77.203125 148.617188 " fill-opacity="1" fill-rule="nonzero"/></g><g clip-path="url(#ee642ca246)"><g clip-path="url(#9634359400)"><path fill="#1e1411" d="M 249.980469 155.320312 L 249.980469 175.09375 L 74.40625 175.09375 L 74.40625 155.320312 Z M 249.980469 155.320312 " fill-opacity="1" fill-rule="nonzero"/></g></g><g clip-path="url(#a77a25c524)"><path fill="#ffffff" d="M 77.203125 163.824219 L 255.316406 163.824219 L 255.316406 175.09375 L 77.203125 175.09375 Z M 77.203125 163.824219 " fill-opacity="1" fill-rule="nonzero"/></g><g clip-path="url(#445b001542)"><g clip-path="url(#2eadde7253)"><g clip-path="url(#b462585be1)"><path fill="#1e1411" d="M 100.371094 149.265625 C 79.292969 133.535156 49.34375 137.882812 33.613281 158.964844 C 17.878906 180.042969 22.230469 209.992188 43.308594 225.722656 C 64.390625 241.453125 94.335938 237.105469 110.066406 216.027344 C 125.800781 194.945312 121.453125 165 100.371094 149.265625 Z M 78.609375 214.089844 C 78.402344 214.164062 78.195312 214.238281 77.984375 214.3125 C 77.878906 214.347656 77.773438 214.382812 77.664062 214.417969 C 77.3125 214.53125 76.957031 214.640625 76.601562 214.742188 C 76.496094 214.773438 76.390625 214.800781 76.289062 214.832031 C 76.082031 214.886719 75.875 214.941406 75.664062 214.992188 C 75.550781 215.019531 75.433594 215.046875 75.320312 215.074219 C 74.980469 215.152344 74.636719 215.222656 74.292969 215.289062 C 74.164062 215.3125 74.035156 215.339844 73.90625 215.359375 C 73.707031 215.390625 73.503906 215.429688 73.304688 215.457031 C 73.101562 215.484375 72.890625 215.511719 72.683594 215.539062 C 72.433594 215.570312 72.183594 215.597656 71.933594 215.621094 C 71.777344 215.636719 71.621094 215.648438 71.464844 215.660156 C 71.222656 215.679688 70.980469 215.695312 70.738281 215.707031 C 70.515625 215.71875 70.292969 215.726562 70.070312 215.730469 C 69.894531 215.734375 69.722656 215.738281 69.546875 215.738281 C 69.34375 215.738281 69.144531 215.734375 68.941406 215.730469 C 68.71875 215.726562 68.496094 215.71875 68.273438 215.710938 C 68.050781 215.699219 67.828125 215.6875 67.609375 215.671875 C 67.457031 215.660156 67.304688 215.648438 67.152344 215.632812 C 66.84375 215.605469 66.535156 215.574219 66.230469 215.53125 C 66.101562 215.515625 65.976562 215.496094 65.851562 215.480469 C 65.613281 215.445312 65.375 215.40625 65.132812 215.367188 C 65.007812 215.347656 64.886719 215.324219 64.761719 215.300781 C 64.441406 215.242188 64.121094 215.175781 63.800781 215.101562 C 63.6875 215.078125 63.574219 215.046875 63.460938 215.019531 C 63.183594 214.953125 62.90625 214.878906 62.628906 214.800781 C 62.550781 214.78125 62.476562 214.761719 62.402344 214.738281 C 62.066406 214.640625 61.738281 214.535156 61.410156 214.425781 C 61.308594 214.390625 61.207031 214.355469 61.105469 214.320312 C 60.773438 214.203125 60.441406 214.082031 60.109375 213.949219 C 60.058594 213.925781 60.007812 213.90625 59.953125 213.882812 C 59.652344 213.761719 59.355469 213.628906 59.054688 213.496094 C 58.972656 213.457031 58.890625 213.421875 58.8125 213.382812 C 58.480469 213.230469 58.152344 213.066406 57.832031 212.898438 C 57.761719 212.863281 57.695312 212.824219 57.628906 212.789062 C 57.332031 212.632812 57.039062 212.46875 56.75 212.296875 C 56.695312 212.265625 56.644531 212.234375 56.589844 212.203125 C 56.269531 212.011719 55.949219 211.808594 55.632812 211.601562 C 55.5625 211.550781 55.492188 211.503906 55.417969 211.457031 C 55.097656 211.238281 54.777344 211.015625 54.460938 210.78125 C 54.148438 210.546875 53.84375 210.300781 53.542969 210.058594 C 53.476562 210 53.410156 209.949219 53.34375 209.890625 C 53.054688 209.648438 52.769531 209.402344 52.492188 209.148438 C 52.449219 209.105469 52.40625 209.0625 52.359375 209.019531 C 52.113281 208.789062 51.871094 208.554688 51.636719 208.316406 C 51.582031 208.265625 51.527344 208.210938 51.476562 208.15625 C 51.222656 207.894531 50.972656 207.625 50.730469 207.351562 C 50.671875 207.285156 50.613281 207.21875 50.554688 207.152344 C 50.339844 206.902344 50.132812 206.652344 49.925781 206.398438 C 49.890625 206.355469 49.855469 206.3125 49.820312 206.269531 C 49.601562 205.992188 49.390625 205.703125 49.179688 205.417969 C 49.117188 205.332031 49.058594 205.246094 48.996094 205.160156 C 48.796875 204.875 48.601562 204.589844 48.410156 204.296875 C 48.367188 204.230469 48.328125 204.164062 48.285156 204.097656 C 48.132812 203.855469 47.984375 203.609375 47.839844 203.363281 C 47.785156 203.257812 47.722656 203.160156 47.664062 203.058594 C 47.503906 202.773438 47.347656 202.484375 47.199219 202.195312 C 47.140625 202.082031 47.089844 201.96875 47.03125 201.859375 C 46.925781 201.640625 46.820312 201.421875 46.71875 201.199219 C 46.664062 201.085938 46.613281 200.96875 46.5625 200.855469 C 46.433594 200.570312 46.316406 200.285156 46.203125 200 C 46.144531 199.855469 46.089844 199.714844 46.035156 199.570312 C 45.957031 199.363281 45.882812 199.152344 45.808594 198.941406 C 45.734375 198.734375 45.664062 198.523438 45.597656 198.3125 C 45.535156 198.121094 45.476562 197.925781 45.417969 197.730469 C 45.371094 197.5625 45.320312 197.398438 45.277344 197.230469 C 45.21875 197.011719 45.160156 196.792969 45.109375 196.574219 C 45.050781 196.339844 44.996094 196.105469 44.949219 195.871094 C 44.914062 195.714844 44.882812 195.5625 44.851562 195.40625 C 44.804688 195.164062 44.761719 194.921875 44.71875 194.679688 C 44.683594 194.46875 44.648438 194.261719 44.621094 194.046875 C 44.59375 193.835938 44.566406 193.644531 44.542969 193.441406 C 44.527344 193.3125 44.515625 193.183594 44.5 193.050781 C 44.464844 192.703125 44.4375 192.355469 44.414062 192.007812 C 44.40625 191.890625 44.398438 191.773438 44.394531 191.65625 C 44.382812 191.441406 44.375 191.222656 44.371094 191.007812 C 44.367188 190.902344 44.367188 190.792969 44.367188 190.6875 C 44.359375 190.316406 44.363281 189.941406 44.375 189.570312 C 44.378906 189.457031 44.378906 189.347656 44.386719 189.234375 C 44.5 186.566406 45.007812 183.972656 45.910156 181.453125 C 46.808594 178.9375 48.058594 176.609375 49.660156 174.46875 C 49.949219 174.085938 50.246094 173.710938 50.550781 173.347656 C 43.089844 184.558594 45.628906 199.832031 56.550781 207.980469 C 67.472656 216.132812 82.835938 214.222656 91.460938 203.878906 C 91.199219 204.277344 90.925781 204.667969 90.636719 205.050781 C 89.109375 207.105469 87.324219 208.902344 85.277344 210.441406 C 83.230469 211.976562 81.007812 213.195312 78.609375 214.089844 Z M 63.039062 186.179688 C 62.863281 186.285156 62.679688 186.34375 62.476562 186.359375 C 62.277344 186.371094 62.082031 186.34375 61.898438 186.269531 C 61.710938 186.191406 61.550781 186.082031 61.417969 185.929688 C 61.28125 185.78125 61.1875 185.609375 61.132812 185.414062 C 61.078125 185.222656 61.070312 185.027344 61.109375 184.828125 C 61.144531 184.632812 61.226562 184.453125 61.34375 184.289062 C 61.464844 184.128906 61.617188 184.003906 61.796875 183.914062 C 61.976562 183.824219 62.164062 183.777344 62.367188 183.773438 C 62.566406 183.773438 62.757812 183.816406 62.941406 183.902344 C 63.121094 183.988281 63.273438 184.113281 63.398438 184.269531 C 63.523438 184.429688 63.605469 184.605469 63.644531 184.800781 C 63.6875 185 63.683594 185.195312 63.632812 185.390625 C 63.542969 185.734375 63.34375 186 63.035156 186.179688 Z M 58.265625 192.710938 C 57.925781 193.003906 53.476562 195.742188 51.78125 195.8125 C 51.335938 195.832031 50.863281 195.507812 50.40625 195.023438 C 49.429688 192.222656 49.011719 189.34375 49.152344 186.382812 C 49.449219 185.785156 49.8125 185.339844 50.242188 185.230469 C 50.65625 185.128906 51.277344 185.136719 51.992188 185.207031 C 52.167969 185.226562 52.351562 185.246094 52.539062 185.273438 C 52.910156 185.324219 53.296875 185.386719 53.683594 185.460938 C 55.417969 185.78125 57.113281 186.257812 57.34375 186.359375 C 57.460938 186.414062 57.625 186.609375 57.796875 186.878906 C 57.992188 187.199219 58.167969 187.527344 58.320312 187.867188 C 58.351562 188.925781 58.503906 189.964844 58.773438 190.988281 C 58.664062 191.78125 58.460938 192.539062 58.265625 192.710938 Z M 67.527344 180.199219 C 67.378906 180.289062 67.222656 180.34375 67.050781 180.367188 C 66.882812 180.394531 66.714844 180.382812 66.546875 180.339844 C 66.382812 180.296875 66.230469 180.226562 66.09375 180.121094 C 65.957031 180.019531 65.84375 179.894531 65.753906 179.746094 C 65.710938 179.671875 65.675781 179.589844 65.644531 179.507812 C 65.546875 179.21875 65.546875 178.929688 65.652344 178.640625 C 65.757812 178.351562 65.945312 178.128906 66.207031 177.972656 C 66.285156 177.929688 66.363281 177.890625 66.445312 177.863281 C 66.757812 177.753906 67.070312 177.765625 67.375 177.898438 C 67.679688 178.027344 67.902344 178.242188 68.039062 178.542969 C 68.179688 178.847656 68.199219 179.15625 68.101562 179.472656 C 68.003906 179.789062 67.8125 180.03125 67.527344 180.199219 Z M 71.46875 173.972656 C 70.410156 174.003906 69.371094 174.15625 68.347656 174.425781 C 67.554688 174.316406 66.796875 174.113281 66.628906 173.917969 C 66.335938 173.578125 63.597656 169.128906 63.523438 167.433594 C 63.511719 167.15625 63.632812 166.867188 63.84375 166.578125 C 63.886719 166.523438 63.933594 166.460938 63.984375 166.40625 C 64.085938 166.285156 64.195312 166.167969 64.3125 166.058594 C 65.007812 165.816406 65.707031 165.609375 66.421875 165.433594 C 66.777344 165.347656 67.132812 165.269531 67.492188 165.203125 C 69.296875 164.851562 71.117188 164.71875 72.953125 164.804688 C 73.027344 164.84375 73.101562 164.878906 73.171875 164.921875 C 73.585938 165.15625 73.90625 165.429688 74.046875 165.738281 C 74.070312 165.792969 74.089844 165.84375 74.105469 165.898438 C 74.167969 166.15625 74.191406 166.496094 74.179688 166.886719 C 74.152344 167.515625 74.085938 168.140625 73.976562 168.761719 C 73.960938 168.855469 73.945312 168.953125 73.925781 169.050781 C 73.808594 169.722656 73.664062 170.402344 73.523438 171.007812 C 73.460938 171.265625 73.398438 171.507812 73.34375 171.734375 C 73.25 172.105469 73.160156 172.417969 73.09375 172.644531 C 73.066406 172.734375 73.042969 172.8125 73.023438 172.871094 C 73.003906 172.929688 72.988281 172.972656 72.976562 173 C 72.957031 173.035156 72.9375 173.066406 72.910156 173.097656 C 72.703125 173.332031 72.109375 173.683594 71.46875 173.972656 Z M 59.761719 172.273438 C 59.933594 172.496094 60.105469 172.734375 60.273438 172.972656 L 60.441406 173.214844 C 60.550781 173.375 60.660156 173.539062 60.765625 173.699219 C 61.246094 174.429688 61.675781 175.136719 61.972656 175.65625 C 62.039062 175.773438 62.097656 175.878906 62.152344 175.972656 C 62.175781 176.019531 62.203125 176.066406 62.222656 176.105469 C 62.3125 176.269531 62.371094 176.386719 62.390625 176.441406 C 62.425781 176.53125 62.421875 176.695312 62.386719 176.902344 C 62.375 176.972656 62.363281 177.046875 62.34375 177.125 C 62.257812 177.488281 62.148438 177.84375 62.015625 178.195312 C 61.835938 178.382812 61.664062 178.578125 61.492188 178.78125 C 61.320312 178.980469 61.15625 179.1875 60.996094 179.402344 C 60.917969 179.507812 60.84375 179.621094 60.769531 179.730469 C 60.539062 180.054688 60.324219 180.386719 60.128906 180.726562 C 59.648438 181.085938 59.144531 181.398438 58.816406 181.523438 C 58.734375 181.5625 58.644531 181.582031 58.550781 181.582031 C 58.429688 181.566406 58.304688 181.542969 58.183594 181.515625 C 58.136719 181.507812 58.085938 181.496094 58.035156 181.484375 C 57.929688 181.460938 57.8125 181.433594 57.683594 181.402344 C 57.101562 181.265625 56.300781 181.058594 55.464844 180.804688 C 55.277344 180.746094 55.089844 180.6875 54.90625 180.628906 L 54.625 180.535156 C 54.347656 180.441406 54.074219 180.347656 53.808594 180.246094 C 53.722656 180.214844 53.636719 180.179688 53.546875 180.144531 C 52.777344 179.839844 52.125 179.511719 51.773438 179.1875 C 51.6875 179.109375 51.617188 179.015625 51.566406 178.914062 C 51.539062 178.859375 51.511719 178.800781 51.492188 178.742188 C 51.445312 178.613281 51.414062 178.480469 51.394531 178.347656 C 51.359375 178.113281 51.351562 177.878906 51.359375 177.640625 C 51.832031 176.65625 52.375 175.710938 52.984375 174.804688 C 53.1875 174.5 53.402344 174.195312 53.625 173.898438 C 53.847656 173.601562 54.078125 173.308594 54.3125 173.023438 C 54.78125 172.457031 55.273438 171.917969 55.785156 171.40625 C 56.042969 171.152344 56.300781 170.902344 56.570312 170.664062 C 56.722656 170.609375 56.878906 170.566406 57.035156 170.535156 C 57.335938 170.46875 57.609375 170.453125 57.847656 170.496094 C 57.960938 170.519531 58.066406 170.558594 58.167969 170.617188 C 58.578125 170.863281 59.078125 171.398438 59.589844 172.046875 C 59.648438 172.121094 59.707031 172.199219 59.761719 172.273438 Z M 67.03125 183.90625 C 67.636719 183.089844 68.402344 182.472656 69.324219 182.046875 C 69.5 181.964844 69.675781 181.894531 69.859375 181.828125 C 70.089844 181.75 70.324219 181.683594 70.566406 181.628906 C 70.804688 181.578125 71.046875 181.539062 71.289062 181.519531 C 71.53125 181.496094 71.777344 181.488281 72.023438 181.496094 C 72.265625 181.503906 72.507812 181.527344 72.75 181.5625 C 72.992188 181.601562 73.230469 181.652344 73.46875 181.71875 C 73.703125 181.785156 73.933594 181.863281 74.160156 181.960938 C 74.386719 182.054688 74.605469 182.164062 74.816406 182.285156 C 75.03125 182.40625 75.234375 182.539062 75.429688 182.683594 C 75.625 182.832031 75.8125 182.988281 75.988281 183.160156 C 76.167969 183.328125 76.332031 183.507812 76.488281 183.695312 C 76.644531 183.886719 76.785156 184.085938 76.917969 184.292969 C 77.046875 184.5 77.164062 184.714844 77.269531 184.933594 C 77.375 185.15625 77.464844 185.382812 77.539062 185.613281 C 77.617188 185.847656 77.679688 186.082031 77.726562 186.324219 C 77.777344 186.5625 77.808594 186.804688 77.828125 187.050781 C 77.84375 187.292969 77.847656 187.539062 77.835938 187.78125 C 77.828125 187.976562 77.808594 188.167969 77.78125 188.359375 C 77.636719 189.363281 77.257812 190.273438 76.652344 191.085938 C 76.417969 191.40625 76.152344 191.699219 75.859375 191.964844 C 75.570312 192.234375 75.253906 192.46875 74.914062 192.675781 C 74.574219 192.878906 74.21875 193.050781 73.84375 193.183594 C 73.472656 193.320312 73.089844 193.417969 72.699219 193.476562 C 72.304688 193.535156 71.914062 193.554688 71.515625 193.535156 C 71.121094 193.515625 70.730469 193.457031 70.347656 193.359375 C 69.960938 193.261719 69.589844 193.128906 69.230469 192.960938 C 68.875 192.789062 68.535156 192.585938 68.21875 192.347656 C 67.902344 192.113281 67.609375 191.847656 67.34375 191.550781 C 67.078125 191.257812 66.847656 190.9375 66.644531 190.597656 C 66.441406 190.257812 66.277344 189.898438 66.144531 189.523438 C 66.011719 189.152344 65.921875 188.769531 65.863281 188.375 C 65.808594 187.984375 65.792969 187.589844 65.816406 187.191406 C 65.839844 186.796875 65.902344 186.40625 66 186.023438 C 66.101562 185.640625 66.238281 185.269531 66.410156 184.914062 C 66.585938 184.558594 66.789062 184.222656 67.03125 183.90625 Z M 80.90625 183.632812 C 80.683594 183.765625 80.441406 183.824219 80.179688 183.8125 C 79.921875 183.796875 79.6875 183.714844 79.476562 183.5625 C 79.339844 183.457031 79.222656 183.328125 79.132812 183.179688 C 79.046875 183.027344 78.988281 182.867188 78.964844 182.695312 C 78.953125 182.609375 78.953125 182.527344 78.957031 182.445312 C 78.972656 182.160156 79.074219 181.910156 79.253906 181.691406 C 79.4375 181.472656 79.667969 181.328125 79.945312 181.261719 C 80.21875 181.195312 80.488281 181.21875 80.75 181.328125 C 81.011719 181.4375 81.214844 181.617188 81.359375 181.863281 C 81.496094 182.089844 81.558594 182.335938 81.539062 182.597656 C 81.515625 183.054688 81.304688 183.402344 80.910156 183.632812 Z M 87.28125 175.246094 C 86.777344 175.640625 86.199219 176.046875 85.632812 176.421875 C 85.472656 176.527344 85.3125 176.632812 85.15625 176.730469 C 84.285156 177.285156 83.5 177.734375 83.117188 177.9375 C 83.011719 177.992188 82.933594 178.027344 82.894531 178.042969 C 82.652344 178.136719 81.890625 177.953125 81.140625 177.671875 C 80.949219 177.492188 80.753906 177.316406 80.554688 177.144531 C 80.355469 176.976562 80.148438 176.808594 79.933594 176.648438 C 79.71875 176.488281 79.5 176.339844 79.28125 176.195312 C 79.058594 176.050781 78.835938 175.910156 78.609375 175.78125 C 78.125 175.140625 77.734375 174.464844 77.753906 174.207031 C 77.757812 174.164062 77.769531 174.082031 77.792969 173.964844 C 77.875 173.539062 78.085938 172.65625 78.367188 171.664062 C 78.421875 171.484375 78.472656 171.300781 78.53125 171.117188 C 78.726562 170.46875 78.949219 169.800781 79.1875 169.203125 C 79.253906 169.03125 79.324219 168.867188 79.394531 168.707031 C 79.429688 168.628906 79.464844 168.554688 79.5 168.480469 C 79.570312 168.328125 79.640625 168.1875 79.714844 168.058594 C 79.75 167.996094 79.785156 167.929688 79.820312 167.871094 C 79.886719 167.761719 79.957031 167.65625 80.035156 167.554688 C 80.070312 167.507812 80.109375 167.464844 80.144531 167.425781 C 80.371094 167.179688 80.746094 167.058594 81.207031 167.023438 C 81.367188 167.011719 81.527344 167.007812 81.691406 167.015625 C 82.335938 167.328125 82.972656 167.671875 83.597656 168.046875 C 84.222656 168.421875 84.835938 168.835938 85.433594 169.28125 C 86.027344 169.726562 86.597656 170.195312 87.136719 170.6875 C 87.675781 171.179688 88.1875 171.691406 88.667969 172.222656 C 88.773438 172.515625 88.835938 172.8125 88.859375 173.121094 C 88.859375 173.1875 88.859375 173.253906 88.855469 173.316406 C 88.851562 173.496094 88.804688 173.664062 88.714844 173.824219 C 88.6875 173.867188 88.65625 173.914062 88.621094 173.960938 C 88.546875 174.066406 88.464844 174.164062 88.378906 174.261719 C 88.332031 174.3125 88.28125 174.363281 88.230469 174.414062 C 88.128906 174.519531 88.011719 174.628906 87.890625 174.738281 C 87.828125 174.796875 87.765625 174.851562 87.699219 174.90625 C 87.570312 175.019531 87.429688 175.132812 87.285156 175.246094 Z M 74.332031 176.738281 C 74.421875 176.746094 74.507812 176.757812 74.589844 176.78125 C 74.824219 176.839844 75.023438 176.953125 75.191406 177.125 C 75.359375 177.292969 75.472656 177.496094 75.527344 177.726562 C 75.582031 177.960938 75.574219 178.191406 75.503906 178.417969 C 75.433594 178.648438 75.308594 178.839844 75.128906 179 C 75.003906 179.109375 74.863281 179.195312 74.703125 179.25 C 74.457031 179.339844 74.203125 179.351562 73.949219 179.285156 C 73.628906 179.203125 73.375 179.023438 73.191406 178.746094 C 73.007812 178.46875 72.941406 178.167969 72.988281 177.839844 C 73.039062 177.511719 73.191406 177.242188 73.449219 177.03125 C 73.707031 176.820312 74 176.722656 74.332031 176.742188 Z M 60.785156 196.945312 C 61.027344 196.851562 61.789062 197.035156 62.539062 197.316406 C 63.308594 198.050781 64.152344 198.679688 65.070312 199.207031 C 65.554688 199.847656 65.945312 200.523438 65.925781 200.78125 C 65.894531 201.230469 64.683594 206.3125 63.535156 207.566406 C 63.230469 207.894531 62.664062 208 61.988281 207.976562 C 59.320312 206.695312 56.996094 204.960938 55.007812 202.765625 C 54.796875 202.128906 54.734375 201.550781 54.964844 201.167969 C 55.839844 199.707031 60.363281 197.105469 60.785156 196.945312 Z M 62.390625 191.703125 C 62.503906 191.546875 62.648438 191.421875 62.820312 191.332031 C 62.988281 191.238281 63.171875 191.1875 63.367188 191.179688 C 63.558594 191.167969 63.746094 191.203125 63.925781 191.277344 C 64.101562 191.347656 64.257812 191.457031 64.386719 191.601562 C 64.507812 191.734375 64.59375 191.882812 64.652344 192.050781 C 64.691406 192.15625 64.710938 192.261719 64.71875 192.375 C 64.726562 192.484375 64.722656 192.59375 64.703125 192.707031 C 64.683594 192.816406 64.648438 192.917969 64.601562 193.019531 C 64.554688 193.121094 64.492188 193.214844 64.421875 193.300781 C 64.351562 193.386719 64.269531 193.460938 64.179688 193.523438 C 64.089844 193.589844 63.992188 193.640625 63.886719 193.679688 C 63.78125 193.71875 63.675781 193.746094 63.5625 193.757812 C 63.453125 193.769531 63.34375 193.765625 63.234375 193.75 C 63.125 193.730469 63.015625 193.699219 62.914062 193.65625 C 62.8125 193.613281 62.71875 193.554688 62.628906 193.488281 C 62.542969 193.417969 62.464844 193.339844 62.398438 193.25 C 62.332031 193.160156 62.277344 193.066406 62.234375 192.960938 C 62.191406 192.859375 62.164062 192.753906 62.148438 192.644531 C 62.132812 192.53125 62.132812 192.421875 62.144531 192.3125 C 62.160156 192.199219 62.1875 192.09375 62.230469 191.992188 C 62.269531 191.886719 62.324219 191.789062 62.390625 191.703125 Z M 69.476562 195.664062 C 69.5625 195.667969 69.648438 195.683594 69.734375 195.703125 C 69.902344 195.746094 70.050781 195.820312 70.1875 195.921875 C 70.328125 196.023438 70.4375 196.152344 70.527344 196.296875 C 70.613281 196.445312 70.667969 196.605469 70.691406 196.773438 C 70.71875 196.945312 70.707031 197.113281 70.664062 197.277344 C 70.621094 197.445312 70.550781 197.597656 70.445312 197.734375 C 70.34375 197.871094 70.21875 197.984375 70.070312 198.070312 C 69.921875 198.15625 69.765625 198.214844 69.59375 198.238281 C 69.425781 198.261719 69.257812 198.253906 69.089844 198.210938 C 68.925781 198.167969 68.773438 198.09375 68.636719 197.992188 C 68.5 197.886719 68.386719 197.761719 68.300781 197.617188 C 68.210938 197.46875 68.15625 197.308594 68.132812 197.140625 C 68.109375 196.96875 68.117188 196.800781 68.160156 196.636719 C 68.203125 196.464844 68.277344 196.3125 68.382812 196.171875 C 68.660156 195.8125 69.023438 195.644531 69.476562 195.664062 Z M 81.625 188.671875 C 81.792969 188.714844 81.945312 188.789062 82.082031 188.890625 C 82.21875 188.992188 82.332031 189.117188 82.417969 189.265625 C 82.503906 189.414062 82.5625 189.574219 82.585938 189.742188 C 82.609375 189.914062 82.601562 190.082031 82.558594 190.246094 C 82.515625 190.414062 82.441406 190.5625 82.339844 190.703125 C 82.234375 190.839844 82.109375 190.949219 81.964844 191.039062 C 81.816406 191.125 81.65625 191.179688 81.488281 191.207031 C 81.316406 191.230469 81.148438 191.21875 80.984375 191.179688 C 80.816406 191.136719 80.664062 191.0625 80.527344 190.960938 C 80.390625 190.855469 80.277344 190.730469 80.191406 190.582031 C 80.105469 190.4375 80.046875 190.277344 80.023438 190.105469 C 80 189.9375 80.007812 189.769531 80.050781 189.601562 C 80.09375 189.433594 80.167969 189.28125 80.273438 189.140625 C 80.433594 188.933594 80.632812 188.789062 80.878906 188.703125 C 81.125 188.617188 81.375 188.605469 81.625 188.671875 Z M 85.417969 182.28125 C 85.425781 182.273438 85.441406 182.261719 85.460938 182.25 C 85.515625 182.207031 85.605469 182.144531 85.722656 182.066406 C 86 181.886719 86.429688 181.621094 86.945312 181.320312 C 87.535156 180.980469 88.230469 180.59375 88.933594 180.246094 C 89.019531 180.203125 89.105469 180.160156 89.195312 180.117188 C 89.757812 179.835938 90.335938 179.59375 90.929688 179.390625 C 91.007812 179.363281 91.078125 179.34375 91.148438 179.320312 C 91.394531 179.246094 91.644531 179.199219 91.902344 179.179688 C 92.347656 179.160156 92.820312 179.484375 93.277344 179.96875 C 94.253906 182.769531 94.671875 185.652344 94.53125 188.613281 C 94.230469 189.207031 93.871094 189.652344 93.441406 189.761719 C 93.027344 189.863281 92.402344 189.859375 91.691406 189.785156 C 91.160156 189.730469 90.578125 189.640625 90 189.535156 L 89.710938 189.480469 C 89.519531 189.441406 89.328125 189.402344 89.144531 189.363281 C 88.675781 189.261719 88.230469 189.15625 87.835938 189.058594 C 87.046875 188.863281 86.46875 188.691406 86.339844 188.632812 C 86.101562 188.527344 85.695312 187.855469 85.363281 187.125 C 85.355469 186.863281 85.339844 186.601562 85.316406 186.335938 C 85.292969 186.074219 85.261719 185.8125 85.226562 185.550781 C 85.148438 185.03125 85.042969 184.515625 84.90625 184.003906 C 85.003906 183.308594 85.171875 182.640625 85.34375 182.371094 C 85.363281 182.339844 85.386719 182.308594 85.417969 182.28125 Z M 81.289062 198.550781 C 81.199219 198.308594 81.382812 197.550781 81.664062 196.796875 C 81.933594 196.511719 82.1875 196.210938 82.433594 195.902344 C 82.515625 195.796875 82.601562 195.695312 82.683594 195.589844 C 82.84375 195.375 82.996094 195.15625 83.140625 194.9375 C 83.285156 194.714844 83.421875 194.492188 83.550781 194.265625 C 84.191406 193.78125 84.867188 193.390625 85.125 193.410156 C 85.574219 193.445312 90.65625 194.652344 91.910156 195.804688 C 92.238281 196.105469 92.34375 196.675781 92.320312 197.347656 C 91.042969 200.015625 89.304688 202.34375 87.113281 204.328125 C 87.03125 204.355469 86.953125 204.378906 86.875 204.402344 C 86.726562 204.441406 86.578125 204.472656 86.425781 204.496094 C 86.066406 204.546875 85.753906 204.515625 85.511719 204.371094 C 84.054688 203.496094 81.449219 198.972656 81.289062 198.550781 Z M 79.367188 208.933594 C 76.566406 209.910156 73.6875 210.328125 70.722656 210.1875 C 70.128906 209.886719 69.683594 209.527344 69.574219 209.097656 C 69.164062 207.449219 70.519531 202.40625 70.703125 201.996094 C 70.8125 201.761719 71.480469 201.351562 72.210938 201.019531 C 72.472656 201.011719 72.738281 200.996094 73 200.972656 C 73.789062 200.90625 74.566406 200.769531 75.332031 200.566406 C 76.128906 200.671875 76.886719 200.878906 77.054688 201.074219 C 77.089844 201.117188 77.164062 201.222656 77.269531 201.378906 C 77.398438 201.578125 77.570312 201.855469 77.769531 202.183594 C 77.847656 202.316406 77.929688 202.453125 78.015625 202.601562 C 78.914062 204.148438 80.109375 206.445312 80.15625 207.558594 C 80.175781 208 79.851562 208.472656 79.367188 208.933594 Z M 76.15625 194.792969 C 76.304688 194.703125 76.460938 194.648438 76.632812 194.625 C 76.800781 194.601562 76.96875 194.609375 77.136719 194.652344 C 77.300781 194.695312 77.453125 194.769531 77.589844 194.871094 C 77.726562 194.972656 77.839844 195.097656 77.925781 195.246094 C 77.972656 195.324219 78.007812 195.402344 78.039062 195.484375 C 78.183594 195.914062 78.125 196.3125 77.855469 196.675781 C 77.804688 196.742188 77.746094 196.804688 77.683594 196.863281 C 77.546875 196.988281 77.394531 197.078125 77.21875 197.132812 C 77.046875 197.191406 76.867188 197.210938 76.6875 197.191406 C 76.503906 197.175781 76.332031 197.121094 76.175781 197.03125 C 76.015625 196.9375 75.882812 196.820312 75.773438 196.671875 C 75.664062 196.527344 75.589844 196.363281 75.550781 196.183594 C 75.511719 196.007812 75.511719 195.828125 75.546875 195.648438 C 75.582031 195.46875 75.652344 195.304688 75.761719 195.15625 C 75.867188 195.007812 75.996094 194.886719 76.15625 194.792969 Z M 96.4375 154.539062 C 77.882812 140.6875 51.390625 144.554688 36.695312 163.007812 C 36.960938 162.625 37.230469 162.246094 37.511719 161.875 C 51.636719 142.945312 78.53125 139.035156 97.464844 153.164062 C 116.394531 167.292969 120.300781 194.1875 106.171875 213.117188 C 105.890625 213.492188 105.605469 213.859375 105.316406 214.222656 C 118.824219 194.886719 114.996094 168.386719 96.4375 154.539062 Z M 96.4375 154.539062 " fill-opacity="1" fill-rule="nonzero"/></g></g></g><g clip-path="url(#1526da1d76)"><g clip-path="url(#d5392195c3)"><g clip-path="url(#bdffbccc57)"><path fill="#ffffff" d="M 97.464844 153.164062 C 78.535156 139.039062 51.636719 142.941406 37.511719 161.875 C 37.230469 162.246094 36.960938 162.625 36.695312 163.007812 C 51.390625 144.554688 77.882812 140.6875 96.4375 154.539062 C 114.992188 168.386719 118.824219 194.882812 105.316406 214.222656 C 105.605469 213.859375 105.890625 213.492188 106.171875 213.117188 C 120.300781 194.1875 116.394531 167.292969 97.464844 153.164062 Z M 97.464844 153.164062 " fill-opacity="1" fill-rule="nonzero"/></g></g></g><g clip-path="url(#47eb1038bd)"><g clip-path="url(#a430cbdd01)"><g clip-path="url(#fb438f0c69)"><path fill="#ffffff" d="M 56.550781 207.984375 C 45.628906 199.832031 43.089844 184.5625 50.550781 173.347656 C 50.246094 173.710938 49.949219 174.085938 49.660156 174.472656 C 48.058594 176.609375 46.808594 178.9375 45.90625 181.457031 C 45.007812 183.972656 44.5 186.566406 44.386719 189.238281 C 44.378906 189.347656 44.378906 189.460938 44.375 189.570312 C 44.363281 189.941406 44.359375 190.316406 44.363281 190.6875 C 44.363281 190.792969 44.363281 190.902344 44.367188 191.007812 C 44.371094 191.222656 44.378906 191.4375 44.390625 191.65625 C 44.394531 191.773438 44.402344 191.890625 44.410156 192.007812 C 44.433594 192.355469 44.460938 192.703125 44.496094 193.050781 C 44.507812 193.183594 44.523438 193.3125 44.539062 193.441406 C 44.5625 193.644531 44.585938 193.847656 44.617188 194.046875 C 44.648438 194.246094 44.679688 194.46875 44.714844 194.675781 C 44.757812 194.921875 44.800781 195.164062 44.847656 195.40625 C 44.878906 195.5625 44.910156 195.714844 44.945312 195.871094 C 44.996094 196.105469 45.046875 196.339844 45.105469 196.574219 C 45.160156 196.792969 45.214844 197.011719 45.273438 197.226562 C 45.320312 197.394531 45.367188 197.5625 45.414062 197.730469 C 45.472656 197.925781 45.53125 198.117188 45.59375 198.3125 C 45.660156 198.523438 45.730469 198.734375 45.804688 198.941406 C 45.878906 199.152344 45.953125 199.359375 46.03125 199.570312 C 46.085938 199.714844 46.140625 199.855469 46.199219 199.996094 C 46.3125 200.285156 46.433594 200.570312 46.558594 200.855469 C 46.609375 200.96875 46.664062 201.082031 46.714844 201.199219 C 46.816406 201.417969 46.921875 201.640625 47.027344 201.859375 C 47.085938 201.96875 47.136719 202.082031 47.195312 202.191406 C 47.34375 202.484375 47.5 202.769531 47.660156 203.058594 C 47.71875 203.160156 47.777344 203.261719 47.835938 203.359375 C 47.980469 203.609375 48.128906 203.855469 48.28125 204.097656 C 48.324219 204.164062 48.363281 204.230469 48.40625 204.296875 C 48.59375 204.589844 48.792969 204.875 48.992188 205.160156 C 49.054688 205.246094 49.113281 205.332031 49.175781 205.417969 C 49.382812 205.707031 49.597656 205.988281 49.816406 206.269531 C 49.851562 206.3125 49.886719 206.355469 49.921875 206.398438 C 50.125 206.652344 50.335938 206.902344 50.550781 207.148438 C 50.609375 207.21875 50.667969 207.285156 50.726562 207.351562 C 50.96875 207.625 51.21875 207.890625 51.472656 208.15625 C 51.523438 208.210938 51.582031 208.261719 51.632812 208.316406 C 51.867188 208.554688 52.109375 208.789062 52.355469 209.019531 C 52.402344 209.0625 52.445312 209.105469 52.492188 209.144531 C 52.765625 209.398438 53.050781 209.648438 53.34375 209.890625 C 53.40625 209.945312 53.472656 210 53.539062 210.054688 C 53.84375 210.304688 54.148438 210.546875 54.460938 210.78125 C 54.769531 211.011719 55.09375 211.238281 55.414062 211.457031 C 55.488281 211.503906 55.558594 211.550781 55.628906 211.597656 C 55.945312 211.808594 56.265625 212.011719 56.585938 212.203125 C 56.640625 212.234375 56.695312 212.265625 56.746094 212.296875 C 57.035156 212.464844 57.332031 212.632812 57.625 212.789062 C 57.691406 212.824219 57.757812 212.863281 57.828125 212.898438 C 58.152344 213.066406 58.476562 213.230469 58.808594 213.382812 C 58.890625 213.421875 58.972656 213.457031 59.050781 213.492188 C 59.351562 213.628906 59.652344 213.757812 59.953125 213.882812 C 60.003906 213.902344 60.054688 213.925781 60.105469 213.949219 C 60.4375 214.078125 60.769531 214.199219 61.105469 214.320312 C 61.203125 214.355469 61.304688 214.390625 61.40625 214.421875 C 61.734375 214.535156 62.066406 214.640625 62.398438 214.738281 C 62.472656 214.761719 62.546875 214.777344 62.625 214.800781 C 62.902344 214.878906 63.179688 214.949219 63.457031 215.019531 C 63.570312 215.046875 63.683594 215.074219 63.796875 215.101562 C 64.117188 215.175781 64.4375 215.242188 64.757812 215.300781 C 64.882812 215.324219 65.003906 215.34375 65.128906 215.367188 C 65.367188 215.40625 65.609375 215.445312 65.847656 215.476562 C 65.972656 215.496094 66.101562 215.515625 66.226562 215.53125 C 66.53125 215.570312 66.839844 215.605469 67.148438 215.632812 C 67.300781 215.644531 67.453125 215.65625 67.605469 215.667969 C 67.828125 215.683594 68.046875 215.699219 68.269531 215.707031 C 68.488281 215.71875 68.710938 215.726562 68.9375 215.730469 C 69.140625 215.734375 69.339844 215.738281 69.542969 215.738281 C 69.71875 215.738281 69.890625 215.734375 70.066406 215.730469 C 70.289062 215.726562 70.511719 215.71875 70.734375 215.707031 C 70.976562 215.695312 71.21875 215.679688 71.460938 215.660156 C 71.617188 215.648438 71.773438 215.632812 71.929688 215.621094 C 72.179688 215.597656 72.429688 215.570312 72.679688 215.539062 C 72.886719 215.511719 73.09375 215.484375 73.300781 215.453125 C 73.507812 215.425781 73.703125 215.390625 73.902344 215.359375 C 74.035156 215.335938 74.160156 215.3125 74.289062 215.289062 C 74.632812 215.222656 74.976562 215.152344 75.316406 215.070312 C 75.433594 215.046875 75.546875 215.019531 75.660156 214.992188 C 75.871094 214.941406 76.078125 214.886719 76.285156 214.832031 C 76.390625 214.804688 76.496094 214.773438 76.597656 214.742188 C 76.953125 214.640625 77.308594 214.53125 77.660156 214.414062 C 77.765625 214.378906 77.875 214.34375 77.980469 214.308594 C 78.191406 214.238281 78.398438 214.164062 78.605469 214.085938 C 81.003906 213.191406 83.226562 211.976562 85.273438 210.441406 C 87.320312 208.902344 89.109375 207.105469 90.636719 205.054688 C 90.921875 204.667969 91.195312 204.277344 91.460938 203.882812 C 82.835938 214.226562 67.472656 216.132812 56.550781 207.984375 Z M 56.550781 207.984375 " fill-opacity="1" fill-rule="nonzero"/></g></g></g><g clip-path="url(#5fcde673be)"><g clip-path="url(#9742614f6e)"><g clip-path="url(#f234393879)"><path fill="#ff4e1f" d="M 48.839844 218.316406 C 32.578125 206.179688 29.222656 183.074219 41.359375 166.8125 C 53.496094 150.546875 76.601562 147.191406 92.863281 159.328125 C 109.125 171.464844 112.480469 194.570312 100.34375 210.832031 C 88.207031 227.09375 65.101562 230.453125 48.839844 218.316406 Z M 92.132812 160.304688 C 76.410156 148.566406 54.070312 151.8125 42.332031 167.539062 C 30.597656 183.261719 33.839844 205.605469 49.566406 217.339844 C 65.292969 229.078125 87.632812 225.832031 99.367188 210.105469 C 111.105469 194.382812 107.859375 172.039062 92.132812 160.304688 Z M 92.132812 160.304688 " fill-opacity="1" fill-rule="nonzero"/></g></g></g><path stroke-linecap="butt" transform="matrix(1.115305, 0, 0, 1.115305, 94.206217, 160.520337)" fill="none" stroke-linejoin="miter" d="M 8.112301 24.256937 L 18.23075 24.256937 L 10.704081 45.001684 L 25.028919 45.001684 C 25.449207 45.001684 25.911525 44.875597 26.251258 44.66195 L 29.315863 43.113887 C 29.942793 42.774154 30.454144 42.189252 30.699313 41.513288 L 36.954609 24.256937 L 47.087067 24.256937 L 49.475708 17.661908 L 10.500941 17.661908 Z M 49.976552 45.001684 L 70.094368 45.001684 C 76.440726 45.001684 81.270543 42.476449 83.238895 37.061731 L 87.86207 24.379521 C 88.324387 23.118655 88.079219 21.938345 87.361226 21.230859 L 83.617154 18.288838 C 83.196866 17.826521 82.531409 17.661908 81.690832 17.661908 L 61.573016 17.661908 C 55.31772 17.661908 50.487903 20.176635 48.509044 25.598358 L 43.896376 38.28407 C 43.472585 39.453874 43.598672 40.630682 44.355191 41.348675 L 48.046726 44.374753 C 48.467015 44.837071 49.142979 45.001684 49.976552 45.001684 Z M 60.946085 36.34724 L 64.599094 26.305844 C 65.057909 25.139543 66.318775 24.256937 67.408023 24.256937 L 69.302824 24.256937 C 70.472627 24.256937 71.148592 25.139543 70.689777 26.305844 L 67.026261 36.34724 C 66.658508 37.485522 65.355613 38.406654 64.25936 38.406654 L 62.371564 38.406654 C 61.194756 38.406654 60.567825 37.485522 60.946085 36.34724 Z M 111.969125 17.661908 L 93.192731 17.661908 L 85.718598 38.28407 C 85.298309 39.453874 85.4314 40.630682 86.180915 41.348675 L 89.921484 44.374753 C 90.341773 44.837071 91.010732 45.001684 91.80928 45.001684 L 113.569725 45.001684 L 115.958365 38.406654 L 106.554407 38.406654 C 105.374096 38.406654 104.792697 37.485522 105.170957 36.34724 Z M 123.978873 45.001684 L 144.096689 45.001684 C 150.443048 45.001684 155.272865 42.476449 157.244719 37.061731 L 161.867894 24.379521 C 162.330211 23.118655 162.08154 21.938345 161.363547 21.230859 L 157.622979 18.288838 C 157.20269 17.826521 156.537233 17.661908 155.693153 17.661908 L 135.575337 17.661908 C 129.320041 17.661908 124.493727 20.176635 122.511365 25.598358 L 117.898698 38.28407 C 117.478409 39.453874 117.600993 40.630682 118.361015 41.348675 L 122.05255 44.374753 C 122.472839 44.837071 123.148803 45.001684 123.978873 45.001684 Z M 134.951909 36.34724 L 138.601415 26.305844 C 139.063733 25.139543 140.324599 24.256937 141.410344 24.256937 L 143.308648 24.256937 C 144.478451 24.256937 145.154416 25.139543 144.692098 26.305844 L 141.032085 36.34724 C 140.66083 37.485522 139.361437 38.406654 138.261682 38.406654 L 136.377388 38.406654 C 135.197077 38.406654 134.570147 37.485522 134.951909 36.34724 Z M 174.725224 45.001684 L 178.75299 33.874542 L 182.157328 45.001684 L 199.630828 45.001684 L 199.714885 44.742506 L 195.385912 34.837703 L 196.145934 34.837703 C 197.109096 34.837703 197.949673 34.662583 198.996892 33.699422 L 201.805821 31.230226 C 202.439757 30.634817 202.77949 30.1725 202.98263 29.549071 L 204.460645 25.598358 C 206.428996 20.176635 203.364392 17.661908 197.067067 17.661908 L 167.033942 17.661908 L 157.118632 45.001684 Z M 182.241385 24.256937 L 184.290292 24.256937 C 185.390048 24.256937 186.055505 25.139543 185.593187 26.305844 L 184.885701 28.368761 C 184.465413 29.454506 183.162518 30.428175 181.98571 30.428175 L 180.013856 30.428175 Z M 225.912877 24.256937 L 243.600024 24.256937 L 245.992167 17.661908 L 209.539132 17.661908 L 202.061497 38.28407 C 201.641208 39.453874 201.767295 40.630682 202.523814 41.348675 L 206.267886 44.374753 C 206.677667 44.837071 207.311603 45.001684 208.15218 45.001684 L 236.083862 45.001684 L 238.476005 38.406654 L 222.897306 38.406654 C 221.720498 38.406654 221.135596 37.485522 221.503349 36.34724 L 222.221342 34.417415 L 238.136272 34.417415 L 240.412835 28.246177 L 224.487398 28.246177 Z M 225.912877 24.256937 " stroke="#1e1411" stroke-width="11.025" stroke-opacity="1" stroke-miterlimit="4"/><g fill="#ff4e1f" fill-opacity="1"><g transform="translate(94.206217, 210.70906)"><g><path d="M 9.039062 -23.140625 L 20.328125 -23.140625 L 11.945312 0 L 27.917969 0 C 28.386719 0 28.902344 -0.140625 29.277344 -0.375 L 32.695312 -2.109375 C 33.398438 -2.484375 33.960938 -3.136719 34.242188 -3.886719 L 41.222656 -23.140625 L 52.511719 -23.140625 L 55.179688 -30.496094 L 11.710938 -30.496094 Z M 9.039062 -23.140625 "/></g></g></g><g fill="#ff4e1f" fill-opacity="1"><g transform="translate(138.988002, 210.70906)"><g><path d="M 10.960938 0 L 33.398438 0 C 40.472656 0 45.859375 -2.8125 48.0625 -8.851562 L 53.214844 -23 C 53.730469 -24.40625 53.449219 -25.714844 52.652344 -26.511719 L 48.480469 -29.792969 C 48.015625 -30.308594 47.265625 -30.496094 46.328125 -30.496094 L 23.890625 -30.496094 C 16.910156 -30.496094 11.523438 -27.683594 9.320312 -21.640625 L 4.167969 -7.496094 C 3.699219 -6.183594 3.839844 -4.871094 4.683594 -4.074219 L 8.804688 -0.703125 C 9.273438 -0.1875 10.023438 0 10.960938 0 Z M 23.1875 -9.648438 L 27.261719 -20.84375 C 27.777344 -22.15625 29.183594 -23.140625 30.402344 -23.140625 L 32.507812 -23.140625 C 33.820312 -23.140625 34.570312 -22.15625 34.054688 -20.84375 L 29.980469 -9.648438 C 29.558594 -8.386719 28.105469 -7.355469 26.886719 -7.355469 L 24.78125 -7.355469 C 23.46875 -7.355469 22.765625 -8.386719 23.1875 -9.648438 Z M 23.1875 -9.648438 "/></g></g></g><g fill="#ff4e1f" fill-opacity="1"><g transform="translate(185.26875, 210.70906)"><g><path d="M 33.820312 -30.496094 L 12.882812 -30.496094 L 4.542969 -7.496094 C 4.074219 -6.183594 4.214844 -4.871094 5.058594 -4.074219 L 9.226562 -0.703125 C 9.695312 -0.1875 10.445312 0 11.335938 0 L 35.601562 0 L 38.269531 -7.355469 L 27.777344 -7.355469 C 26.464844 -7.355469 25.808594 -8.386719 26.230469 -9.648438 Z M 33.820312 -30.496094 "/></g></g></g><g fill="#ff4e1f" fill-opacity="1"><g transform="translate(221.525129, 210.70906)"><g><path d="M 10.960938 0 L 33.398438 0 C 40.472656 0 45.859375 -2.8125 48.0625 -8.851562 L 53.214844 -23 C 53.730469 -24.40625 53.449219 -25.714844 52.652344 -26.511719 L 48.480469 -29.792969 C 48.015625 -30.308594 47.265625 -30.496094 46.328125 -30.496094 L 23.890625 -30.496094 C 16.910156 -30.496094 11.523438 -27.683594 9.320312 -21.640625 L 4.167969 -7.496094 C 3.699219 -6.183594 3.839844 -4.871094 4.683594 -4.074219 L 8.804688 -0.703125 C 9.273438 -0.1875 10.023438 0 10.960938 0 Z M 23.1875 -9.648438 L 27.261719 -20.84375 C 27.777344 -22.15625 29.183594 -23.140625 30.402344 -23.140625 L 32.507812 -23.140625 C 33.820312 -23.140625 34.570312 -22.15625 34.054688 -20.84375 L 29.980469 -9.648438 C 29.558594 -8.386719 28.105469 -7.355469 26.886719 -7.355469 L 24.78125 -7.355469 C 23.46875 -7.355469 22.765625 -8.386719 23.1875 -9.648438 Z M 23.1875 -9.648438 "/></g></g></g><g fill="#ff4e1f" fill-opacity="1"><g transform="translate(267.805877, 210.70906)"><g><path d="M 21.265625 0 L 25.761719 -12.414062 L 29.558594 0 L 49.042969 0 L 49.136719 -0.28125 L 44.3125 -11.335938 L 45.15625 -11.335938 C 46.234375 -11.335938 47.171875 -11.523438 48.339844 -12.601562 L 51.480469 -15.363281 C 52.183594 -16.019531 52.558594 -16.535156 52.792969 -17.238281 L 54.429688 -21.640625 C 56.632812 -27.683594 53.214844 -30.496094 46.1875 -30.496094 L 12.695312 -30.496094 L 1.640625 0 Z M 29.652344 -23.140625 L 31.945312 -23.140625 C 33.164062 -23.140625 33.914062 -22.15625 33.398438 -20.84375 L 32.601562 -18.550781 C 32.132812 -17.332031 30.683594 -16.253906 29.371094 -16.253906 L 27.167969 -16.253906 Z M 29.652344 -23.140625 "/></g></g></g><g fill="#ff4e1f" fill-opacity="1"><g transform="translate(315.210865, 210.70906)"><g><path d="M 30.964844 -23.140625 L 50.683594 -23.140625 L 53.355469 -30.496094 L 12.695312 -30.496094 L 4.355469 -7.496094 C 3.886719 -6.183594 4.027344 -4.871094 4.871094 -4.074219 L 9.039062 -0.703125 C 9.507812 -0.1875 10.210938 0 11.148438 0 L 42.300781 0 L 44.96875 -7.355469 L 27.589844 -7.355469 C 26.277344 -7.355469 25.621094 -8.386719 26.042969 -9.648438 L 26.839844 -11.804688 L 44.59375 -11.804688 L 47.125 -18.691406 L 29.371094 -18.691406 Z M 30.964844 -23.140625 "/></g></g></g><g fill="#1e1411" fill-opacity="1"><g transform="translate(135.784918, 227.82595)"><g><path d="M 7.863281 0 C 7.933594 0 7.976562 -0.046875 7.976562 -0.113281 L 7.976562 -5.585938 C 7.976562 -5.652344 7.933594 -5.699219 7.863281 -5.699219 L 6.953125 -5.699219 C 6.882812 -5.699219 6.839844 -5.652344 6.839844 -5.585938 L 6.839844 -1.480469 L 1.140625 -5.699219 L 0.113281 -5.699219 C 0.046875 -5.699219 0 -5.652344 0 -5.585938 L 0 -0.113281 C 0 -0.046875 0.046875 0 0.113281 0 L 1.027344 0 C 1.09375 0 1.140625 -0.046875 1.140625 -0.113281 L 1.140625 -4.21875 L 6.839844 0 Z M 7.863281 0 "/></g></g></g><g fill="#1e1411" fill-opacity="1"><g transform="translate(148.641174, 227.82595)"><g><path d="M 1.164062 0 L 7.863281 0 C 7.933594 0 7.976562 -0.046875 7.976562 -0.113281 L 7.976562 -1.027344 C 7.976562 -1.09375 7.933594 -1.140625 7.863281 -1.140625 L 1.367188 -1.140625 C 1.242188 -1.140625 1.140625 -1.242188 1.140625 -1.367188 L 1.140625 -2.28125 L 7.316406 -2.28125 C 7.40625 -2.28125 7.453125 -2.324219 7.453125 -2.394531 L 7.453125 -3.304688 C 7.453125 -3.375 7.40625 -3.417969 7.316406 -3.417969 L 1.140625 -3.417969 L 1.140625 -4.332031 C 1.140625 -4.457031 1.242188 -4.558594 1.367188 -4.558594 L 7.863281 -4.558594 C 7.933594 -4.558594 7.976562 -4.605469 7.976562 -4.671875 L 7.976562 -5.585938 C 7.976562 -5.652344 7.933594 -5.699219 7.863281 -5.699219 L 1.164062 -5.699219 C 0.488281 -5.699219 0 -5.207031 0 -4.535156 L 0 -1.164062 C 0 -0.488281 0.488281 0 1.164062 0 Z M 1.164062 0 "/></g></g></g><g fill="#1e1411" fill-opacity="1"><g transform="translate(161.49743, 227.82595)"><g><path d="M 1.164062 0 L 4.535156 0 C 4.753906 0 4.957031 -0.0585938 5.128906 -0.148438 C 5.300781 -0.0585938 5.503906 0 5.722656 0 L 9.09375 0 C 9.765625 0 10.257812 -0.488281 10.257812 -1.164062 L 10.257812 -5.585938 C 10.257812 -5.652344 10.210938 -5.699219 10.144531 -5.699219 L 9.230469 -5.699219 C 9.164062 -5.699219 9.117188 -5.652344 9.117188 -5.585938 L 9.117188 -1.367188 C 9.117188 -1.242188 9.015625 -1.140625 8.890625 -1.140625 L 5.925781 -1.140625 C 5.800781 -1.140625 5.699219 -1.242188 5.699219 -1.367188 L 5.699219 -5.585938 C 5.699219 -5.652344 5.652344 -5.699219 5.585938 -5.699219 L 4.671875 -5.699219 C 4.605469 -5.699219 4.558594 -5.652344 4.558594 -5.585938 L 4.558594 -1.367188 C 4.558594 -1.242188 4.457031 -1.140625 4.332031 -1.140625 L 1.367188 -1.140625 C 1.242188 -1.140625 1.140625 -1.242188 1.140625 -1.367188 L 1.140625 -5.585938 C 1.140625 -5.652344 1.09375 -5.699219 1.027344 -5.699219 L 0.113281 -5.699219 C 0.046875 -5.699219 0 -5.652344 0 -5.585938 L 0 -1.164062 C 0 -0.488281 0.488281 0 1.164062 0 Z M 1.164062 0 "/></g></g></g><g fill="#1e1411" fill-opacity="1"><g transform="translate(176.632773, 227.82595)"><g><path d="M 0.113281 0 L 6.816406 0 C 7.488281 0 7.976562 -0.488281 7.976562 -1.164062 L 7.976562 -2.257812 C 7.976562 -2.929688 7.488281 -3.417969 6.816406 -3.417969 L 1.367188 -3.417969 C 1.242188 -3.417969 1.140625 -3.523438 1.140625 -3.648438 L 1.140625 -4.332031 C 1.140625 -4.457031 1.242188 -4.558594 1.367188 -4.558594 L 7.863281 -4.558594 C 7.933594 -4.558594 7.976562 -4.605469 7.976562 -4.671875 L 7.976562 -5.585938 C 7.976562 -5.652344 7.933594 -5.699219 7.863281 -5.699219 L 1.164062 -5.699219 C 0.488281 -5.699219 0 -5.207031 0 -4.535156 L 0 -3.441406 C 0 -2.769531 0.488281 -2.28125 1.164062 -2.28125 L 6.609375 -2.28125 C 6.734375 -2.28125 6.839844 -2.175781 6.839844 -2.050781 L 6.839844 -1.367188 C 6.839844 -1.242188 6.734375 -1.140625 6.609375 -1.140625 L 0.113281 -1.140625 C 0.046875 -1.140625 0 -1.09375 0 -1.027344 L 0 -0.113281 C 0 -0.046875 0.046875 0 0.113281 0 Z M 0.113281 0 "/></g></g></g><g fill="#1e1411" fill-opacity="1"><g transform="translate(189.489031, 227.82595)"><g/></g></g><g fill="#1e1411" fill-opacity="1"><g transform="translate(196.647575, 227.82595)"><g><path d="M 0.113281 0 L 1.027344 0 C 1.09375 0 1.140625 -0.046875 1.140625 -0.113281 L 1.140625 -2.28125 L 6.839844 -2.28125 L 6.839844 -0.113281 C 6.839844 -0.046875 6.882812 0 6.953125 0 L 7.863281 0 C 7.933594 0 7.976562 -0.046875 7.976562 -0.113281 L 7.976562 -4.535156 C 7.976562 -5.207031 7.488281 -5.699219 6.816406 -5.699219 L 1.164062 -5.699219 C 0.488281 -5.699219 0 -5.207031 0 -4.535156 L 0 -0.113281 C 0 -0.046875 0.046875 0 0.113281 0 Z M 1.140625 -3.417969 L 1.140625 -4.332031 C 1.140625 -4.457031 1.242188 -4.558594 1.367188 -4.558594 L 6.609375 -4.558594 C 6.734375 -4.558594 6.839844 -4.457031 6.839844 -4.332031 L 6.839844 -3.417969 Z M 1.140625 -3.417969 "/></g></g></g><g fill="#1e1411" fill-opacity="1"><g transform="translate(209.503833, 227.82595)"><g><path d="M 7.863281 0 C 7.933594 0 7.976562 -0.046875 7.976562 -0.113281 L 7.976562 -5.585938 C 7.976562 -5.652344 7.933594 -5.699219 7.863281 -5.699219 L 6.953125 -5.699219 C 6.882812 -5.699219 6.839844 -5.652344 6.839844 -5.585938 L 6.839844 -1.480469 L 1.140625 -5.699219 L 0.113281 -5.699219 C 0.046875 -5.699219 0 -5.652344 0 -5.585938 L 0 -0.113281 C 0 -0.046875 0.046875 0 0.113281 0 L 1.027344 0 C 1.09375 0 1.140625 -0.046875 1.140625 -0.113281 L 1.140625 -4.21875 L 6.839844 0 Z M 7.863281 0 "/></g></g></g><g fill="#1e1411" fill-opacity="1"><g transform="translate(222.360092, 227.82595)"><g><path d="M 0.113281 0 L 6.816406 0 C 7.488281 0 7.976562 -0.488281 7.976562 -1.164062 L 7.976562 -4.535156 C 7.976562 -5.207031 7.488281 -5.699219 6.816406 -5.699219 L 0.113281 -5.699219 C 0.046875 -5.699219 0 -5.652344 0 -5.585938 L 0 -0.113281 C 0 -0.046875 0.046875 0 0.113281 0 Z M 1.140625 -1.140625 L 1.140625 -4.558594 L 6.609375 -4.558594 C 6.734375 -4.558594 6.839844 -4.457031 6.839844 -4.332031 L 6.839844 -1.367188 C 6.839844 -1.242188 6.734375 -1.140625 6.609375 -1.140625 Z M 1.140625 -1.140625 "/></g></g></g><g fill="#1e1411" fill-opacity="1"><g transform="translate(235.216351, 227.82595)"><g/></g></g><g fill="#1e1411" fill-opacity="1"><g transform="translate(242.374894, 227.82595)"><g><path d="M 1.164062 0 L 7.863281 0 C 7.933594 0 7.976562 -0.046875 7.976562 -0.113281 L 7.976562 -1.027344 C 7.976562 -1.09375 7.933594 -1.140625 7.863281 -1.140625 L 1.367188 -1.140625 C 1.242188 -1.140625 1.140625 -1.242188 1.140625 -1.367188 L 1.140625 -2.28125 L 7.316406 -2.28125 C 7.40625 -2.28125 7.453125 -2.324219 7.453125 -2.394531 L 7.453125 -3.304688 C 7.453125 -3.375 7.40625 -3.417969 7.316406 -3.417969 L 1.140625 -3.417969 L 1.140625 -4.332031 C 1.140625 -4.457031 1.242188 -4.558594 1.367188 -4.558594 L 7.863281 -4.558594 C 7.933594 -4.558594 7.976562 -4.605469 7.976562 -4.671875 L 7.976562 -5.585938 C 7.976562 -5.652344 7.933594 -5.699219 7.863281 -5.699219 L 1.164062 -5.699219 C 0.488281 -5.699219 0 -5.207031 0 -4.535156 L 0 -1.164062 C 0 -0.488281 0.488281 0 1.164062 0 Z M 1.164062 0 "/></g></g></g><g fill="#1e1411" fill-opacity="1"><g transform="translate(255.231152, 227.82595)"><g><path d="M 3.886719 -0.0703125 C 3.953125 -0.0351562 4.023438 -0.0351562 4.089844 -0.0703125 L 7.5 -2.152344 C 7.808594 -2.347656 7.976562 -2.65625 7.976562 -3.007812 L 7.976562 -5.585938 C 7.976562 -5.652344 7.933594 -5.699219 7.863281 -5.699219 L 6.953125 -5.699219 C 6.882812 -5.699219 6.839844 -5.652344 6.839844 -5.585938 L 6.839844 -3.179688 C 6.839844 -3.113281 6.804688 -3.042969 6.746094 -3.007812 L 4.046875 -1.367188 C 4.011719 -1.34375 3.964844 -1.34375 3.933594 -1.367188 L 1.230469 -3.007812 C 1.175781 -3.042969 1.140625 -3.113281 1.140625 -3.179688 L 1.140625 -5.585938 C 1.140625 -5.652344 1.09375 -5.699219 1.027344 -5.699219 L 0.113281 -5.699219 C 0.046875 -5.699219 0 -5.652344 0 -5.585938 L 0 -3.007812 C 0 -2.65625 0.171875 -2.347656 0.480469 -2.152344 Z M 3.886719 -0.0703125 "/></g></g></g><g fill="#1e1411" fill-opacity="1"><g transform="translate(268.087411, 227.82595)"><g><path d="M 1.164062 0 L 7.863281 0 C 7.933594 0 7.976562 -0.046875 7.976562 -0.113281 L 7.976562 -1.027344 C 7.976562 -1.09375 7.933594 -1.140625 7.863281 -1.140625 L 1.367188 -1.140625 C 1.242188 -1.140625 1.140625 -1.242188 1.140625 -1.367188 L 1.140625 -2.28125 L 7.316406 -2.28125 C 7.40625 -2.28125 7.453125 -2.324219 7.453125 -2.394531 L 7.453125 -3.304688 C 7.453125 -3.375 7.40625 -3.417969 7.316406 -3.417969 L 1.140625 -3.417969 L 1.140625 -4.332031 C 1.140625 -4.457031 1.242188 -4.558594 1.367188 -4.558594 L 7.863281 -4.558594 C 7.933594 -4.558594 7.976562 -4.605469 7.976562 -4.671875 L 7.976562 -5.585938 C 7.976562 -5.652344 7.933594 -5.699219 7.863281 -5.699219 L 1.164062 -5.699219 C 0.488281 -5.699219 0 -5.207031 0 -4.535156 L 0 -1.164062 C 0 -0.488281 0.488281 0 1.164062 0 Z M 1.164062 0 "/></g></g></g><g fill="#1e1411" fill-opacity="1"><g transform="translate(280.94367, 227.82595)"><g><path d="M 7.863281 0 C 7.933594 0 7.976562 -0.046875 7.976562 -0.113281 L 7.976562 -5.585938 C 7.976562 -5.652344 7.933594 -5.699219 7.863281 -5.699219 L 6.953125 -5.699219 C 6.882812 -5.699219 6.839844 -5.652344 6.839844 -5.585938 L 6.839844 -1.480469 L 1.140625 -5.699219 L 0.113281 -5.699219 C 0.046875 -5.699219 0 -5.652344 0 -5.585938 L 0 -0.113281 C 0 -0.046875 0.046875 0 0.113281 0 L 1.027344 0 C 1.09375 0 1.140625 -0.046875 1.140625 -0.113281 L 1.140625 -4.21875 L 6.839844 0 Z M 7.863281 0 "/></g></g></g><g fill="#1e1411" fill-opacity="1"><g transform="translate(293.799919, 227.82595)"><g><path d="M 3.53125 0 L 4.445312 0 C 4.511719 0 4.558594 -0.046875 4.558594 -0.113281 L 4.558594 -4.558594 L 7.863281 -4.558594 C 7.933594 -4.558594 7.976562 -4.605469 7.976562 -4.671875 L 7.976562 -5.585938 C 7.976562 -5.652344 7.933594 -5.699219 7.863281 -5.699219 L 0.113281 -5.699219 C 0.046875 -5.699219 0 -5.652344 0 -5.585938 L 0 -4.671875 C 0 -4.605469 0.046875 -4.558594 0.113281 -4.558594 L 3.417969 -4.558594 L 3.417969 -0.113281 C 3.417969 -0.046875 3.464844 0 3.53125 0 Z M 3.53125 0 "/></g></g></g><g fill="#1e1411" fill-opacity="1"><g transform="translate(306.656169, 227.82595)"><g><path d="M 0.113281 0 L 6.816406 0 C 7.488281 0 7.976562 -0.488281 7.976562 -1.164062 L 7.976562 -2.257812 C 7.976562 -2.929688 7.488281 -3.417969 6.816406 -3.417969 L 1.367188 -3.417969 C 1.242188 -3.417969 1.140625 -3.523438 1.140625 -3.648438 L 1.140625 -4.332031 C 1.140625 -4.457031 1.242188 -4.558594 1.367188 -4.558594 L 7.863281 -4.558594 C 7.933594 -4.558594 7.976562 -4.605469 7.976562 -4.671875 L 7.976562 -5.585938 C 7.976562 -5.652344 7.933594 -5.699219 7.863281 -5.699219 L 1.164062 -5.699219 C 0.488281 -5.699219 0 -5.207031 0 -4.535156 L 0 -3.441406 C 0 -2.769531 0.488281 -2.28125 1.164062 -2.28125 L 6.609375 -2.28125 C 6.734375 -2.28125 6.839844 -2.175781 6.839844 -2.050781 L 6.839844 -1.367188 C 6.839844 -1.242188 6.734375 -1.140625 6.609375 -1.140625 L 0.113281 -1.140625 C 0.046875 -1.140625 0 -1.09375 0 -1.027344 L 0 -0.113281 C 0 -0.046875 0.046875 0 0.113281 0 Z M 0.113281 0 "/></g></g></g></svg>